<svg xmlns="http://www.w3.org/2000/svg" width="820" height="836">
	<path fill="none" d="M0 73C21.2 47 45.7 22.2 71 0H0v73Z"/>
	<path fill="none"
	      d="M0 75v634a542.9 542.9 0 0 0 148 127h234v-1c-42.8 0-90.7-15-128.7-30.3-38-15.4-68.2-35-99.6-60.5A387 387 0 0 1 77.2 662a427.1 427.1 0 0 1-54-106C8.8 516.3 1 462.7 1 418s7.8-97.4 22-137a418 418 0 0 1 53.8-106.3c23.4-32.9 44.9-57 76.3-82.6a381 381 0 0 1 99.6-60.4C290.7 16 339 1 382 1V0H73A697.5 697.5 0 0 0 0 75Z"/>
	<path fill="none" stroke="#FDFFFE" stroke-opacity=".5" stroke-width=".3"
	      d="M382 1c6.5 0 14.3.8 20-1h-20v1Z"/>
	<path fill="none" stroke="#FCFEFD" stroke-width=".3"
	      d="M382 1c-43 0-91.3 15.1-129.3 30.7A381 381 0 0 0 153 92a390.9 390.9 0 0 0-76.3 82.7 418 418 0 0 0-53.9 106.1A436.1 436.1 0 0 0 1 418c0 44.7 7.8 98.3 22 138 14.4 39.6 30.7 73 54 106a387 387 0 0 0 76.8 82.3c31.3 25.4 61.5 45 99.5 60.4C291.3 820 339.2 835 382 835c6.5 0 14.3-.8 20 1h18c3-1.6 9.1-1.7 12 0h7a410 410 0 0 0 261.8-122.3A426.3 426.3 0 0 0 820 448v-8c-1.6-3-1.7-9.1 0-12v-19c-1.7-2.1-1-6.1-1-9v-12c0-51-18.8-108.3-39.3-152.7a391.8 391.8 0 0 0-79-113 393.7 393.7 0 0 0-111-81A425 425 0 0 0 439 0h-1c-5 1.6-13.1 1.7-18 0h-18c-5.7 1.8-13.5 1-20 1m28 93c2.4-2.5 5.5-4.8 8-7 22.2-19 50.6-33.7 79-21 28.6 12.5 46 20 67.3 43.8 21.2 23.6 10.9 61.6 3.7 89.2-1.2 4.5-7.6 13.9-5 18a241 241 0 0 1 30.8 20.3c9.5 7.3 22 21.5 11.4 33-10.6 11.4-26.7 10.5-41.2 10.7 12.1 19.8 24.6 39.4 35 60 11.7-1.8 22.6-6.8 35-6 5-.5 11-.5 16 0 14 0 27 2.9 40 7a180.3 180.3 0 0 1 34.7 16.3c9 5.4 16.1 13.2 24.5 19.4 8.5 6.3 18.4 20.8 4.6 22a145 145 0 0 0-36.9 7.2c-11.5 4.1-20 7.4-29 14a70.4 70.4 0 0 0-22.1 21.9c-5.5 9.5-12.4 17.7-13.6 29.4-1.1 11.7 4.3 26.2 4.8 38.8.5 12.6 1.2 29.5 0 42-.3 3.3 0 6-1 9-.5 1.7-1 3.4-2 5-21.9-10.7-41.5-26.1-61-41 2.1 12.9 7.9 26.4 12.8 38.2a383.2 383.2 0 0 0 37 65c7.1 10 12.7 21 21 30 8.2 9.1 20.9 27.4 3.2 26.8a245 245 0 0 1-85-17c-13.2-4.8-22.4-10.7-34-17-11.8-6.2-20.2-13.6-31-21a55.4 55.4 0 0 0-27-6c2-4.3-9.2-4-14.7-6.3-5.4-2.3-13.6-1.8-17.6-7.4-4-5.6-7.5-8.6-12-14-4.5-5.3-4-13.8-3.7-21.3.3-7.5 1.2-16 2.8-23.2 1.6-7.1.5-15 3.5-21.5 3-6.6 1.5-13.8 7.7-18.3.4-3 2-6 3-9 8.1-23.1 25-42.2 39-62-3.6-3.5-8-6-11-10-4.6-4-9.5-7.8-14-12-16.9-15.6-38-25.8-56-39-5.1-2.5-10.2-5.7-15-9-12.2-8.5-26-14.8-39.7-21.3-13.7-6.5-29-14.5-43.3-17.7-4.6-1-5-2.2-8-4-11.6-3.6-26-10.8-39-12-12.3-1.1-32.2-4.7-41-12h-2c-12.2 0-22.3-4.3-31-8-3.1-.6-2.2-.7-4-2-2.7-.9-6.2-.3-9-1-7.6-2-15-4.5-23-5-3.3-.2-6.6-1.7-8-2-8.7-.8-16.4-2.7-25-4 10-15.9 22.5-24.5 38.7-34.3 16.2-9.8 33.6-17 50.3-24.7 2.9-2 4.7-3.5 9-3h2c2.5-3.2 13.5-4.8 18-6 9.4-4.3 18-8 30-8h2c2.1-2.6 5-2 9-2 1.6 0 3.5.3 5 0l3-1c2.9-.7 6.8-.3 10-1 2.3-.5 6.7-2 11-2h45c4.4 0 7.5 1.4 11 2a266 266 0 0 1 29 4c3.1.6 6.8 1.2 10 2-3-2.5-5.3-7.5-10.3-7.7-5-.2-6.6-5.7-9.7-8.3-28.5-7.7-62.8-16.4-94-13a301.8 301.8 0 0 0-86 21c-1.8.8-3.9 2.2-6 3a258 258 0 0 0-55 29c-7 5-14.1 10.7-21 16-9 7-26.6 18.2-24 31 2.5 12.8 10 30.4 15 43 6 8 16.4 15.3 21.8 25.3 5.3 9.9 16.8 17.5 19.2 28.7 8 4.3 11.7 13.7 17.8 20.3 6 6.5 10.6 15.6 16.4 22.4 5.9 7 10 15.3 15.6 22.6 5.5 7.2 10 16.5 15 24 4.9 7.3 9 18.5 15.2 21.7.1 9.6 8 18.1 11.3 27.7 3.3 9.5 8.2 19 12.7 28.3 7.6 13.8 23.5 23.4 34.8 34.3A285 285 0 0 0 340 608c2 1.3 4.6 2.1 6 4-1.8 2-5.5.5-8 1-13.3.5-27.4 3.7-40.2 5.8A370 370 0 0 0 259 627c-12 3.3-23.9 7.2-35 11-11.3 3.7-23.8 9.1-34 13-10.4 3.8-24 11.1-33 14-9 2.8-26.2 17.5-30 6-3.8-11.6 5.6-28.2 7.8-39.2 2.2-11 8.8-22.2 13.5-32.5 4.7-10.3 11.3-20.1 17-30 5.8-9.8 12.5-18.3 19.4-27.5a230 230 0 0 1 21-25c8.7-9-5.4-18.7-11-27.5-5.5-8.9-13.3-17.5-19.4-26.6-6.2-9-12.3-19.1-18.6-28.4-6.3-9.3-12-19.5-17.6-29.4-5.6-9.8-11.3-19.3-16.4-29.6-5.1-10.3-10-21.4-15-32a314 314 0 0 1-13-33A185.7 185.7 0 0 1 85 273c-1.2-11.6 11.5-17.9 18.8-26.3 7.3-8.3 16.2-14.6 25-21 8.7-6.3 18.2-14 28-19 9.7-4.8 20.3-14 31.2-15.7l6-3c26.4-11.5 54.2-21 83-26-6.5-7-24.5-28.3-9.8-35.8 14.8-7.4 34 .7 49 2.6 15 1.8 31.2 7.7 45.8 11.2 14.7 3.4 28.5 9 43 13s28.5 10 43 14c8.1 1.2 14.8 2.1 22.7-3.3 8-5.4.7-15.3-4.7-18.7-38.8-15.2-78.2-28.8-120-34 6-11.3 15.4-18.7 22.8-29.3 7.3-10.5 17.7-17.2 26.3-26.6 8.6-9.4 29.8-16.8 29.9.9.1 17.7-9.5 23.3-15 38m281 203c3.4 4.9 6.5 9 9 15s7 11.6 7 19c0 7.5-8.2-2.2-8-2-14.3-1.4-26.8-10.4-43-10-16.2.5-34-.6-49 5-3.8-4.2-4.6-10-8.3-14.7-3.7-4.8-4.2-11.1-8.7-14.3 3.9-1.7 8-2.5 12-4-1.8-1.9 8.4-3.3 9.1-8 .7-4.6 8.7-4.3 10.6-9.3 2-4.9 6-13.2 2.4-19.8-3.6-6.5-.8-9.3-7.9-16.2-7-6.8-15.2-20-27.2-20.7-1-4.8-11.8-5.9-7.7-11.7 4-5.9 3.6-11 5.7-17.3a71.3 71.3 0 0 1 29.9 20.1c8.5 8.5 20.5 15 25.1 24.9 8.8 2.9 11.2 12.5 18.2 18.8 7 6.2 13 13 16.6 21.4 3.6 8.4 11.8 15.2 14.2 23.8M146 570v1c.3 4.4-5.7 20.2-11 20-5.4-.2-5.2-17.1-13-17a9 9 0 0 0 0-7c-3-5.5-6-12-8-18-2.2-3.8-4.8-7.8-6-13-4-10.5-8.5-20-11-31-1.7-4-6.2-10.2-6-16 5.8 3.7-1.4-5.5-2-11-.5-5.6-2-14.5-3.3-20.7A86 86 0 0 1 84 436c.3-7.2-.5-16.7 0-24 .5-7.3-1.2-16 0-23s2-13 2.3-19.7c.3-6.6 4.8-12 5.7-18.3.3-2-1-5 1-6 4.1 6.4 4.7 15.8 9.3 21.7 4.6 5.9 5.1 17 11.7 18.3-1.5 14.6 16.4 24.8 16 40 7.8 3 8.6 13.5 14.3 19.8 5.6 6.2 8.7 14.3 13.6 21.3 5 7 9.4 12 14.8 19.2 5.4 7.2 10.3 10.8 15.6 19.4 5.3 8.6-6 13-7.3 22.3-11 .9-10.4 16.2-17.3 21.7-7 5.5-11 15.1-17.7 21.3m116-186h13c19-.4 36.7-6.5 53-15-3.9-11.2 16.8-16 22.8-5.8s-8.3 14.8-16.6 21c-8.2 6.3-17.8 9-28.4 12.6C295 400.4 281 400 269 402c-12.1 1.9-24-5-36-5-12.1 0-21.7-18-7-19s21.4 8.5 36 6m444 161c-2.9 8-6.5 14-9.1 21.9-2.6 7.8-8.7 12.6-12.2 19.8-3.5 7.2-9.6 12.6-10.7 19.3-6.5-1.2-7.4 9.3-13 11-6.4 6.1-11-1.4-14-9-.4-1-.5-2-1-3-2.1-2.7-4.1-5.2-6-9-.6-1.2-1.3-2-2-3-2.5-3.2-4.8-5.8-6-10-.4-1.4-.2-1-1-2-3-3.9-5.3-7-5-12 2 .4 3.7 2.2 5 4 5.5 4.4 13 6.5 19 10 5.8 2.1 11.5 4.3 17 6 .4-10.4 3.2-20.6 4.8-32.2 1.5-11.6 2.9-26.8 2.2-38.8-.7-12-4.1-24.1-5.8-35.2-1.6-11 5.4-21.4 11.1-29.5a78 78 0 0 1 21-20c8-5.4 19.7-12.3 27.7-10.3 1.5 43-6 84-22 122m-590 12c2 9.1-5 5.5 0 0m307 70h6c5 0 9 1.2 13 2 2.6.2 5.4 0 8 0 7 0 10.6.7 16 3 2.3.5 5.8 2.4 8 3 2.6.7 5.4.5 8 1 23.3 5 36.5 19.3 57 30 1.1.6 1.8.7 3 1 2.7.6 5-.1 4 4-3.2-.7-8.3 1.7-10-2h-46c-1 .4.5 2.5-5 2s-10.4 2.1-16 2h-3c-5.9 3-12.7 4-21 4h-3c-2.4 1.2-3.9 2-8 2h-5c-2.4.5-6.6 2-11 2-1.5.3-4.5 2-8 2s-6.5-1.7-8-2c-6 0-18.8 2-22-2h-2c-4 0-6-1.3-8-2-3.4-.6-8-1.7-11-2-1.6-.2-3.4 0-5 0-7.3 0-11-2.5-16-4h-4a25 25 0 0 1-12-2h-46c-11.4 3.7-23.5 6.5-34 9 2 1.9 4.3 2.3 7 2-4.6 3.8-8.2-3.2-13 0 4.3-4.3-3.2-3.4-6-3 2.5-3-1-6.7-5-8-4-1.3-8.5-6.3-13-7 3.9-4.6-3.5-4.5-2-9 2.4.1 3.1 2.9 5 4 3.6-2.6 8-4.8 13-4 15-1.4 30.2-8.8 45-12 5.5-1.8 9-4 16-4h1c1.5-5.6 18-2.1 23-6 5.2-3.7 19.5-2 25-2 3-.3 6 .2 9 0-.8.2 2-3 5-2s6.9 0 10 0h4c17.4-4 39.5-2.3 57 0m-101 58c12 1 23.8 5.5 36 6 4.1.2 6.7 1.3 9 2 6.4 1 12.2 2 19 2h40c2.6 0 5.4.2 8 0 6.5-1.3 12-4 20-4h1c.9-3.2 6-2 9-2h5c1.5-.4 3.8-3.8 7-4h12c3.6 0 7-.4 10-1 10-2.1 23.6-.8 32 1 2.6.2 5.4 0 8 0 5.7 0 16.5-.6 20 4h1c1.2.3 2.8.4 3 2-5.3 3.4-11.2 4-15.9 7.1-4.6 3-12 5.5-16.7 7.7-4.6 2.1-13.9 3.4-15.4 9.2-12.8.3-23.6 6-35 8-11.4 1.9-21.2 7.7-33 4l-12 1c-8.7 1.7-18.6.4-28 1-9.4.6-20.8-.5-28-2-2.6-.2-5.4 0-8 0-3.8 0-6-1.4-8-2h-4c-21.4 0-38-9.6-58-12 .8-5.8-9-3-10-8h-1c-6.5 1.2-10.6-4-15-7-1-.4-1.6-.8-3-1-3-.5-13.4-3.4-13-7v-1c.7-4.8 14-2.8 19-5 5.1-2.1 16.5-.3 23-1a65 65 0 0 1 22 2Z"/>
	<path fill="none" stroke="#FDFFFE" stroke-opacity=".6" stroke-width=".3"
	      d="M438 0h-18c4.9 1.7 13 1.6 18 0Z"/>
	<path fill="none"
	      d="M819 388h1V97c-18.2-24.7-40.7-48.2-61-72 22.8 21.2 41.7 46.2 61 69V0H439a425 425 0 0 1 150.8 41.2 393.7 393.7 0 0 1 111 81c34 35.5 58.4 68.7 78.9 113.1C800.2 279.7 819 337 819 388M758 25c-5.4-3-11.1-8.6-14-14 5 4.2 9.9 9 14 14Z"/>
	<path fill="none"
	      d="M758 25c-4.1-5-9-9.8-14-14 2.9 5.4 8.6 11 14 14Zm62 72v-3c-19.3-22.8-38.2-47.8-61-69 20.3 23.8 42.8 47.3 61 72Z"/>
	<path fill="none" stroke="#02293B" stroke-width=".3"
	      d="M466 145a579 579 0 0 1 102 54c7.2-27.6 17.5-65.6-3.8-89.3-21.1-23.6-38.6-31.2-67.1-43.8C468.6 53.3 440.2 68 418 87c-3.6 3.6-7 8.7-11 11 1-1.3 1-3.6 3-4 5.5-14.7 15.1-20.3 15-38-.1-17.7-21.3-10.3-30-1-8.5 9.5-18.9 16.2-26.3 26.8C361.4 92.3 352 99.7 346 111c41.8 5.2 81.2 18.8 120 34Z"/>
	<path fill="none" stroke="#7594A2" stroke-width=".3"
	      d="M410 94c-2 .4-2 2.7-3 4 4-2.3 7.4-7.4 11-11-2.5 2.2-5.6 4.5-8 7Z"/>
	<path fill="none" stroke="#032A3C" stroke-width=".3"
	      d="M194 188c-.5 1.3 1 1.9 1 3h-7c-10.9 1.6-21.5 10.9-31.3 15.8-9.7 4.8-19.2 12.6-28 19-8.7 6.3-17.6 12.6-25 21C96.5 255 83.8 261.4 85 273c1.2 11.6 5.9 26.2 9.7 37.3a314 314 0 0 0 13 33c5 10.6 9.9 21.7 15 32s10.8 19.8 16.4 29.6c5.6 9.9 11.3 20.1 17.6 29.4 6.3 9.3 12.4 19.4 18.6 28.4 6 9 13.9 17.7 19.4 26.6 5.6 8.8 19.7 18.6 11 27.4-8.6 9-14 15.8-21 25-7 9.3-13.6 17.8-19.4 27.6-5.7 9.9-12.3 19.7-17 30-4.7 10.3-11.3 21.5-13.5 32.5-2.2 11-11.6 27.6-7.8 39.2 3.8 11.5 21-3.2 30-6 9-2.9 22.6-10.2 33-14 10.2-3.9 22.7-9.3 34-13 11.1-3.8 23-7.7 35-11 12-3.4 26-6.2 38.8-8.2 12.8-2 26.9-5.3 40.2-5.8-.4-1.8.2-4.5 2-5-13-8.6-28-19-39.3-29.8-11.2-10.8-27-20.4-34.7-34.2-57.9-69.1-112.2-137.5-145-221-5-12.6-12.5-30.2-15-43-2.6-12.8 15-24 24-31 4.8-9.2 9.8-13.8 21-16a258 258 0 0 1 55-29c-.3 0-1.9-1.5-2-2 2.3-1.7 5.3-.7 8-1a301.8 301.8 0 0 1 86-21c31.2-3.4 65.5 5.3 94 13 1 .3 2-.1 3 0 28.6 4.3 56 21.6 82.2 32.8 26.2 11.1 44.5 32 60.7 55.3 16.3 23.2 30.2 47 42.9 73.1 12.6 26.2 25.4 52.6 35 81 9.5 28.5 19.3 63.6 21.2 94.8-15.2-8.3-23-16.3-37.3-27.8-14.2-11.4-8.5-37.3-4.7-53.2-19.2-.6-29.6 20.4-33 36-.7 34.7 4 74.7 21 104 16.8 29.5 31 48.2 55 72a205.9 205.9 0 0 1-115.8-52.3c-32-29-49-66.6-63.2-104.7-1 3-2.6 6-3 9-3 23.2 9.6 49.8 20.3 68.7 10.7 18.9 24.3 35 40.7 49.3 10.8 7.4 19.2 14.8 31 21 11.6 6.3 20.8 12.2 34 17a244.2 244.2 0 0 0 85 17c17.7.6 5-17.7-3.3-26.8-8.2-9-13.8-20-21-30a383.2 383.2 0 0 1-37-65C601 552.4 595.2 539 593 526c19.5 14.9 39.1 30.3 61 41 1-1.6 1.5-3.3 2-5 .2-2-2-6.4-2-9h3c1.2-12.5.5-29.4 0-42-.5-12.6-6-27-4.8-38.8 1.2-11.7 8.1-19.9 13.5-29.4a70.4 70.4 0 0 1 22.2-21.9c9-6.6 17.5-9.9 29-14a145 145 0 0 1 36.9-7.1c13.8-1.3 3.9-15.8-4.5-22-8.5-6.3-15.6-14-24.6-19.5-9-5.4-18.8-10.5-28.7-14.3-1 0-4.3 2.1-6 1v-3c-13-4.1-26-7-40-7h-16c-12.4-.8-23.3 4.2-35 6-10.4-20.6-22.9-40.2-35-60 14.5-.2 30.6.7 41.2-10.8 10.6-11.4-2-25.6-11.5-33A241 241 0 0 0 563 217c-36.6-20.2-76.5-35.4-115-50-14.5-4-28.5-10-43-14s-28.3-9.6-43-13c-14.6-3.5-30.8-9.4-45.8-11.2-15-1.9-34.2-10-49-2.6-14.7 7.5 3.3 28.9 9.8 35.8-28.8 5-56.6 14.5-83 26m488 172c3.3 1 6.7 1.7 10 3 2 .8 3.6 2.4 6 2-10 2.7-21.6 1.7-32 4-10.4 2.3-17.3 4.7-27.7 8.3-10.3 3.6-5.7 20.2-10.3 26.7-3.7-12.8-10-25-16-37-.5-1-4.3-8.1-4-9 1.6-4.6 12.3-2.4 17-4 4.7-1.6 15.2-1 21-1 5.8 0 13.2 1.2 19 2 5.8.8 11.8 3.3 17 5Z"/>
	<path fill="none" stroke="#B5D9E3" stroke-width=".3"
	      d="M448 167c38.5 14.6 78.4 29.8 115 50-2.6-4.1 3.8-13.5 5-18a579 579 0 0 0-102-54c5.4 3.4 12.6 13.3 4.7 18.7-8 5.4-14.6 4.5-22.7 3.3Z"/>
	<path fill="none" stroke="#113534" stroke-width=".3" d="M188 191h7c0-1.1-1.5-1.7-1-3l-6 3Z"/>
	<path fill="none" stroke="#B1EBF6" stroke-width=".3"
	      d="M699 329c2 .2 4-.1 6 0-2.6-11.6-10.2-21-14-32-2.4-8.6-10.6-15.4-14.2-23.8a61.8 61.8 0 0 0-16.6-21.4c-7-6.3-9.4-16-18.2-18.8-4.6-9.9-16.6-16.4-25.1-24.9A71.3 71.3 0 0 0 587 188c-2.1 6.3-1.7 11.4-5.7 17.3-4 5.8 6.8 7 7.7 11.7 12 .6 20.2 14 27.3 20.8 7 6.8 4.2 9.6 7.8 16.1 3.5 6.6-.4 14.9-2.4 19.8-2 5-9.9 4.7-10.6 9.4-.7 4.6-11 6-9.1 7.9-4 1.5-8.1 2.3-12 4 4.5 3.2 5 9.5 8.7 14.3 3.7 4.8 4.5 10.5 8.3 14.7 15-5.6 32.8-4.5 49-5 16.2-.4 28.8 8.6 43 10Z"/>
	<path fill="none" stroke="#C7EEF1" stroke-width=".3"
	      d="M412 209c1.3.3 3.6.9 5 2 1.5 1 5.3-.4 3-1-7.2-4.7-17.2-14.1-25-17-1-.1-2 .3-3 0 3.1 2.6 4.7 8 9.7 8.3 5 .2 7.4 5.2 10.3 7.7Z"/>
	<path fill="none" stroke="#1686AA" stroke-width=".3"
	      d="M420 210a304.1 304.1 0 0 1 74.9 64.1 290 290 0 0 1 52 88c13.4 35 15.9 83.2 15.1 122.9 3.4-15.6 13.8-36.6 33-36-3.8 16-9.5 41.8 4.8 53.3 14.2 11.4 22 19.4 37.2 27.7-1.9-31.2-11.7-66.3-21.2-94.8-9.6-28.4-22.4-54.8-35-81a522.2 522.2 0 0 0-42.9-73.1c-16.2-23.3-34.5-44.2-60.7-55.3-26.2-11.2-53.6-28.5-82.2-32.8 7.8 2.9 17.8 12.3 25 17Z"/>
	<path fill="none" stroke="#163535" stroke-width=".3"
	      d="M206 204c2.1-.8 4.2-2.2 6-3-2.7.3-5.7-.7-8 1 .1.5 1.7 2 2 2Z"/>
	<path fill="none" stroke="#B3F6FA" stroke-width=".3" d="M306 203c3-1 8.3-1.7 11-2-4.3 0-8.7 1.5-11 2Z"/>
	<path fill="none" stroke="#3FB8D8" stroke-width=".3"
	      d="M306 203c-.8.3-1.5 2.3-4 2-2.5-.3-3.8-1-6-1l-3 1c-6.7 5.2-21 4.8-30.7 7.3-9.6 2.6-22 8.7-33.3 8.7h-2c-2.7 2.6-5.5 1.7-9 3-16.7 7.8-34 14.9-50.3 24.7-16.2 9.8-28.7 18.4-38.7 34.3 8.6 1.3 16.3 3.2 25 4 2.6.2 5.9 1.6 8 2 8 .5 15.4 3 23 5 4 .2 5.6-1.4 9 1 1.8 1.3.9 1.4 4 2 10.2 2 21.8 3.6 31 8h2c14.2 1.7 27.8 8.4 41 12 13 1.2 27.4 8.4 39 12 2.8.9 5.6 3 8 4 14.3 3.2 29.6 11.2 43.3 17.7 13.7 6.5 27.5 12.8 39.7 21.3a99.6 99.6 0 0 1 15 9c18 13.2 39.1 23.4 56 39 24-20.5 38.9-49 49-77 1 4 3.7 7.5 3 12 .6 3.4.5 6.7 0 10a65.3 65.3 0 0 1-5 21c-2.4 6-5.5 12.4-8.8 17.2-3.2 4.9-7 11.7-11 15-3.8 3.4-8 13.5-13.2 13.8 3 4 7.4 6.5 11 10-14 19.8-30.9 38.9-39 62 14.1 38.1 31.2 75.8 63.3 104.8 32 29 73 47.8 115.7 52.2a302.3 302.3 0 0 1-55-72c-17-29.3-21.7-69.3-21-104 .8-39.7-1.7-87.9-15-123a289.8 289.8 0 0 0-52.1-87.9A304.1 304.1 0 0 0 420 210c2.3.6-1.5 2-3 1a13.8 13.8 0 0 0-5-2c-3.2-.8-6.9-1.4-10-2-2.9.2-2.7 4.3-8.7 1.7-6-2.6-19.7-4.8-27.3-6.7-1.4-.2-3.1-.8-4-1h-45c-2.7.3-8 1-11 2m80 116a28 28 0 0 1-10 0c-46.4-3.2-41-76.2 5-76 46 .2 51.2 72.9 5 76m96 16c14.9 3.7 9.5 29-6.2 25.2-15.8-3.8-11.1-29.5 6.2-25.2m65 35c10.4 32.4-11 64.3-34 86-4.1-3.5-8-8.8-13-11 8.3-12 18.9-21.6 27-34 8-12.5 12.7-29.4 20-41Z"/>
	<path fill="none" stroke="#B0F4F7" stroke-width=".3"
	      d="M366 202c2.5.3 4.5.8 7 1-3.5-.6-6.6-2-11-2 .9.2 2.6.8 4 1Z"/>
	<path fill="none" stroke="#52B8BD" stroke-width=".3"
	      d="M402 207a266 266 0 0 0-29-4c-2.5-.2-4.5-.7-7-1 7.6 2 21.4 4 27.3 6.7 6 2.6 5.8-1.5 8.7-1.7Z"/>
	<path fill="none" stroke="#5CC5C6" stroke-width=".3"
	      d="M296 204c2.3 0 3.5.7 6 1 2.5.3 3.3-1.8 4-2-3.3.7-7.1.3-10 1Z"/>
	<path fill="none" stroke="#B6F7FC" stroke-width=".3" d="M279 207c2.9-.3 6.6-1.7 9-2-4 0-6.9-.6-9 2Z"/>
	<path fill="none" stroke="#4ABCC2" stroke-width=".3"
	      d="M279 207h-2c-9.6 2.8-20 5.3-30 8-4.5 1.2-15.5 2.8-18 6 11.2 0 23.7-6.1 33.3-8.7 9.6-2.5 24-2.1 30.7-7.3-1.5.3-3.4 0-5 0-2.4.3-6.1 1.7-9 2Z"/>
	<path fill="none" stroke="#C1F9FA" stroke-width=".3" d="M247 215c10-2.7 20.4-5.3 30-8-12 0-20.6 3.7-30 8Z"/>
	<path fill="none" stroke="#BBF4F0" stroke-width=".3" d="M218 224c3.5-1.3 6.3-.4 9-3-4.3-.5-6.1 1-9 3Z"/>
	<path fill="none" stroke="#0E3035" stroke-width=".3"
	      d="M130 249c6.9-5.3 14-11 21-16-11.2 2.2-16.2 6.8-21 16Z"/>
	<path fill="none" stroke="#032C3F" stroke-width=".3"
	      d="M376 319c3.2.2 6.8.2 10 0 46.2-3.1 41-75.8-5-76-46-.2-51.4 72.8-5 76m6-38c2.7 9.4-8.9 13.9-15.2 9.2-6.4-4.6-5.2-16.6 3.2-17.2-1-11.6 12.7-18.2 22.2-11.2 9.6 7 2 22.2-10.2 19.2Z"/>
	<path fill="none" stroke="#F0F5F6" stroke-width=".3"
	      d="M382 281c12.3 3 19.8-12.2 10.2-19.2-9.5-7-23.3-.4-22.2 11.2-8.4.6-9.6 12.6-3.2 17.2 6.3 4.7 17.9.2 15.2-9.2Z"/>
	<path fill="none" stroke="#BBF5FA" stroke-width=".3" d="M162 289c-2.1-.4-5.4-1.8-8-2 1.4.3 4.7 1.8 8 2Z"/>
	<path fill="none" stroke="#5DCFCC" stroke-width=".3" d="M185 294c2.8.7 6.3.1 9 1-3.4-2.4-5-.8-9-1Z"/>
	<path fill="none" stroke="#DAF8FB" stroke-width=".3"
	      d="M229 305c-9.2-4.4-20.8-6-31-8 8.7 3.7 18.8 8 31 8Z"/>
	<path fill="none" stroke="#E0F9FA" stroke-width=".3"
	      d="M699 329c-.2-.2 8 9.5 8 2 0-7.4-4.5-13-7-19s-5.6-10.1-9-15c3.8 11 11.4 20.4 14 32-2-.1-4 .2-6 0Z"/>
	<path fill="none" stroke="#C6F3F7" stroke-width=".3"
	      d="M272 317c-13.3-3.6-26.8-10.3-41-12 8.8 7.3 28.7 10.9 41 12Z"/>
	<path fill="none" stroke="#056371" stroke-width=".3" d="M386 319c-3.2.2-6.8.2-10 0 3.4.6 6.5.6 10 0Z"/>
	<path fill="none" stroke="#C0DDE6" stroke-width=".3"
	      d="M266 544c-4.5-9.2-9.4-18.8-12.7-28.3-3.3-9.6-11.2-18.2-11.3-27.7-6.2-3.2-10.3-14.4-15.2-21.8-5-7.4-9.5-16.7-15-24-5.6-7.2-9.7-15.6-15.6-22.4-5.8-7-10.4-16-16.4-22.6-6.1-6.5-9.8-16-17.8-20.2-2.4-11.2-13.9-18.8-19.3-28.8-5.3-9.9-15.7-17.2-21.7-25.2 32.8 83.5 87.1 151.9 145 221Z"/>
	<path fill="none" stroke="#C0F3F8" stroke-width=".3" d="M319 333c-2.4-1-5.2-3.1-8-4 3 1.8 3.4 3 8 4Z"/>
	<path fill="none" stroke="#6C7F7C" stroke-width=".3" d="M634 335h16c-5-.5-11-.5-16 0Z"/>
	<path fill="none" stroke="#042F41" stroke-width=".3"
	      d="M482 335c-17.3-4.3-22 21.4-6.2 25.2 15.7 3.9 21-21.5 6.2-25.2Z"/>
	<path fill="none" stroke="#173231" stroke-width=".3" d="M696 344c-2-.8-4-1.4-6-2v3c1.7 1.1 5-1 6-1Z"/>
	<path fill="none" stroke="#043044" stroke-width=".3"
	      d="M473 420c4.5 4.2 9.4 8 14 12 5.2-.3 9.4-10.4 13.3-13.8 3.8-3.3 7.7-10.1 11-15 3.2-4.8 6.3-11.3 8.8-17.1A65.3 65.3 0 0 0 525 355c.7-4.5-2-8-3-12-10.1 28-25 56.5-49 77Z"/>
	<path fill="none" stroke="#B0ECF7" stroke-width=".3"
	      d="M92 351c-3.5 25.4-7.4 52.5-6 79 1.4 26.5 5.4 49.8 11 75 2.5 11 7 20.5 11 31-2.7-11.2-7.5-21.7-10-33h87c8.6 5.9 1.3 11.8-4 17-5.1 5.4-9.2 12.2-14 18-7 9.8-12.8 22.6-21 31-.3.3 0 1 0 1 6.8-6.2 10.8-15.8 17.7-21.3 7-5.5 6.4-20.9 17.3-21.7 1.3-9.2 12.6-13.7 7.3-22.3-5.3-8.6-10.2-12.2-15.6-19.4-5.4-7.2-9.9-12.2-14.8-19.2s-8-15.1-13.7-21.4c-5.6-6.2-6.4-16.7-14.2-19.7.4-15.2-17.5-25.4-16-40-6.6-1.4-7.1-12.4-11.7-18.3-4.6-6-5.2-15.3-9.3-21.7-2 1-.7 4-1 6Z"/>
	<path fill="none" stroke="#E9FCFD" stroke-width=".3"
	      d="M97 505a446.6 446.6 0 0 1-11-75c-1.4-26.5 2.5-53.6 6-79-1 6.3-5.4 11.7-5.7 18.3-.2 6.7-1.1 12.6-2.3 19.7-1.2 7 .5 15.7 0 23-.5 7.3.3 16.8 0 24a86 86 0 0 0 1.7 21.3c1.3 6.2 2.8 15.1 3.3 20.7.6 5.5 7.8 14.7 2 11-.2 5.8 4.3 12 6 16Z"/>
	<path fill="none" stroke="#AADCEB" stroke-width=".3"
	      d="M608 358c23.6-4.4 51.6 1.9 74 2-5.2-1.7-11.2-4.2-17-5-5.8-.8-13.2-2-19-2-5.8 0-16.3-.6-21 1-4.7 1.6-15.4-.6-17 4Z"/>
	<path fill="none" stroke="#276887" stroke-width=".3" d="M525 365c.5-3.3.6-6.6 0-10 .2 3.3.1 6.7 0 10Z"/>
	<path fill="none" stroke="#74C9E2" stroke-width=".3"
	      d="M608 358c-.3.9 3.5 8 4 9 4.2 4.7 18.2-4.3 24-3 5.8 1.3 9.6-2.3 15-1 5.4 1.3 10.1-1.3 15 0s10.7-1.3 15 1c4.3 2.3 11-1 11-1-3.3-1.3-6.7-2-10-3-22.4-.1-50.4-6.4-74-2Z"/>
	<path fill="none" stroke="#052A3A" stroke-width=".3"
	      d="M275 384c-4.2.5-9 .4-13 0-14.6 2.5-21.3-7-36-6s-5.1 19 7 19c12 0 23.9 6.9 36 5 12.1-1.9 26.1-1.6 36.8-5.2 10.6-3.7 20.2-6.3 28.4-12.6 8.3-6.2 22.5-10.8 16.6-21-6-10.1-26.7-5.4-22.8 5.8-16.3 8.5-34 14.6-53 15Z"/>
	<path fill="none" stroke="#228BAA" stroke-width=".3"
	      d="M612 367c6 12 12.3 24.2 16 37 4.6-6.5 0-23 10.3-26.7 10.4-3.6 17.3-6 27.7-8.3 10.4-2.3 22-1.3 32-4-2.4.4-4-1.2-6-2 0 0-6.7 3.3-11 1s-10.1.3-15-1-9.6 1.3-15 0-9.2 2.3-15 1c-5.8-1.3-19.8 7.7-24 3Z"/>
	<path fill="none" stroke="#043246" stroke-width=".3"
	      d="M547 370c-7.3 11.6-12 28.5-20 41-8.1 12.4-18.7 22-27 34 5 2.2 8.9 7.5 13 11 23-21.7 44.4-53.6 34-86Z"/>
	<path fill="none" stroke="#A9E7EF" stroke-width=".3"
	      d="M417 381a99.6 99.6 0 0 0-15-9c4.8 3.3 9.9 6.5 15 9Z"/>
	<path fill="none" stroke="#293C3A" stroke-width=".3" d="M275 384h-13c4 .4 8.8.5 13 0Z"/>
	<path fill="none" stroke="#FDFFFE" stroke-opacity=".3" stroke-width=".3" d="M819 400h1v-12h-1v12Z"/>
	<path fill="none" stroke="#FDFFFD" stroke-opacity=".8" stroke-width=".3"
	      d="M820 409v-9h-1c0 2.9-.7 6.9 1 9Z"/>
	<path fill="none" stroke="#A3E7F4" stroke-width=".3"
	      d="M650 583c3.4 2 8.2 6 12.2 6.8 4 .7 9.3 7.6 12.8 7.2 5-6.5 11.1-13.5 15-21-4.5 3.8-13.7-.8-19 1 .6-2.5-1.2-6.3 1-8 .6-3.5 1.6-8 2-11 0-6.6.3-12.6 1-19 9.9 1.3 22.4 2 30 6 0-.2 1 0 1 0 16-38 23.5-79 22-122-8-2-19.6 4.9-27.8 10.3a78 78 0 0 0-20.9 20c-5.7 8.1-12.7 18.4-11 29.5 1.6 11 5 23.2 5.7 35.2.7 12-.7 27.2-2.2 38.8-1.6 11.6-4.4 21.8-4.8 32.2-5.5-1.7-11.2-3.9-17-6Z"/>
	<path fill="none" stroke="#FDFFFD" stroke-opacity=".7" stroke-width=".3"
	      d="M820 440v-12c-1.7 2.9-1.6 9 0 12Z"/>
	<path fill="none"
	      d="M439 836h217a526.5 526.5 0 0 0 164-149V448a426.3 426.3 0 0 1-119.3 265.8A410 410 0 0 1 439 836Z"/>
	<path fill="none" stroke="#88DEEF" stroke-width=".3"
	      d="M108 536c1.3 5.2 3.8 9.3 6 13l-2-5c18.1-2.8 36.4-4.9 55-6 4.8-5.8 8.9-12.6 14-18 5.3-5.2 12.6-11.1 4-17H98c2.5 11.3 7.3 21.8 10 33Z"/>
	<path fill="none" stroke="#BBDCE5" stroke-width=".3"
	      d="M517 631a187.5 187.5 0 0 1-40.7-49.3c-10.7-19-23.4-45.5-20.3-68.7-6.2 4.5-4.7 11.7-7.7 18.3-3 6.6-2 14.4-3.5 21.5-1.6 7.1-2.5 15.7-2.8 23.2-.3 7.5-.8 16 3.7 21.3 4.5 5.4 8 8.4 12 14s12.2 5.1 17.6 7.4c5.5 2.2 16.6 2 14.7 6.3a55.4 55.4 0 0 1 27 6Z"/>
	<path fill="none" stroke="#0F8FAE" stroke-width=".3"
	      d="M114 549c2 6 5 12.5 8 18 1.5 3 3.5 5.9 5 9 2.2 3 5.6 3 9 3 4.1-1.3 4.8-10.1 10-10 8.2-8.4 14-21.3 21-31a594.3 594.3 0 0 0-55 6l2 5Z"/>
	<path fill="none" stroke="#1290AD" stroke-width=".3"
	      d="M674 558c0 4.8-1 8.1-2 11-2.2 1.7-.4 5.5-1 8 5.3-1.8 14.5 2.8 19-1 5.2-10 11-20.5 15-31-7.6-4-20.1-4.7-30-6-.7 6.4-1 12.4-1 19Z"/>
	<path fill="none" stroke="#D1F6F8" stroke-width=".3"
	      d="M690 576c-3.9 7.5-10 14.5-15 21-2 2.5-4.2 6.1-6 9-2.5 4-5.4 7.5-8 11 5.6-1.7 6.5-12.2 13-11 1.1-6.7 7.2-12 10.7-19.3 3.5-7.2 9.6-12 12.2-19.8 2.6-7.8 6.2-13.9 9.1-21.9 0 0-1-.2-1 0-4 10.5-9.8 21-15 31Z"/>
	<path fill="none" stroke="#143636" stroke-width=".3" d="M656 562c1-3 .7-5.7 1-9h-3c0 2.6 2.2 7 2 9Z"/>
	<path fill="none" stroke="#E7FEEA" stroke-width=".3" d="M116 557c-5 5.5 2 9.1 0 0Z"/>
	<path fill="none" stroke="#29A1A2" stroke-width=".3" d="M672 569c1-2.9 2-6.2 2-11-.4 3-1.4 7.5-2 11Z"/>
	<path fill="none" stroke="#D5F7F7" stroke-width=".3"
	      d="M146 571c-1.7 2-2.6 4.6-4 7a75.6 75.6 0 0 1-7 10c-2-4.5-6-7.5-8-12-1.5-3.1-3.5-6-5-9a9 9 0 0 1 0 7c7.8-.1 7.6 16.8 13 17 5.3.2 11.3-15.6 11-20Z"/>
	<path fill="none" stroke="#1D989E" stroke-width=".3"
	      d="M136 579c2.1 0 4.2.3 6-1 1.4-2.4 2.3-5 4-7v-1s-.3-.7 0-1c-5.2-.1-5.9 8.7-10 10Z"/>
	<path fill="none" stroke="#ACE9EF" stroke-width=".3"
	      d="M631 581c-1.3-3.3-2.8-6.6-4-10l4 2c-1.3-1.8-3-3.6-5-4-.3 5 2 8.1 5 12Z"/>
	<path fill="none" stroke="#1793AD" stroke-width=".3"
	      d="M631 581c.8 1 .6.6 1 2 2.4 3.4 4 6.4 6 10 .7 1 1.4 1.8 2 3 2 2.9 4.4 5.6 6 9 .5 1 .6 2 1 3 3.3 5.9 9.2 4.7 15 6 2.4-2.7 4.5-5.8 7-8 1.8-2.9 4-6.5 6-9-3.5.4-8.8-6.5-12.8-7.2-4-.8-8.8-4.8-12.2-6.8-6-3.5-13.5-5.6-19-10l-4-2c1.2 3.4 2.7 6.7 4 10Z"/>
	<path fill="none" stroke="#82DAE0" stroke-width=".3"
	      d="M142 578c-1.8 1.3-3.9 1-6 1-3.4 0-6.8 0-9-3 2 4.5 6 7.5 8 12a74 74 0 0 0 7-10Z"/>
	<path fill="none" stroke="#A8EAEA" stroke-width=".3"
	      d="M638 593c-2-3.6-3.6-6.6-6-10 1.2 4.2 3.5 6.8 6 10Z"/>
	<path fill="none" stroke="#A3E1E2" stroke-width=".3" d="M646 605c-1.6-3.4-4-6.1-6-9 1.9 3.8 3.9 6.3 6 9Z"/>
	<path fill="none" stroke="#91E0EA" stroke-width=".3"
	      d="M647 608c3 7.6 7.6 15.1 14 9 2.6-3.5 5.5-7 8-11-2.5 2.2-4.6 5.3-7 8-5.8-1.3-11.7-.1-15-6Z"/>
	<path fill="none" stroke="#1A3D3A" stroke-width=".3"
	      d="M338 613c2.5-.5 6.2 1 8-1-1.4-1.9-4-2.7-6-4-1.8.5-2.4 3.2-2 5Z"/>
	<path fill="none" stroke="#CEF9FA" stroke-width=".3"
	      d="M366 627h12c11.3-1.1 24.8-1 36 0h9c-17.5-2.3-39.6-4-57 0Z"/>
	<path fill="none" stroke="#76AEAF" stroke-width=".3" d="M378 627h36c-11.2-1-24.7-1.1-36 0Z"/>
	<path fill="none" stroke="#BDF1F7" stroke-width=".3"
	      d="M347 629c4.9-.3 10.6-1.4 15-2-3.1 0-7 1-10 0s-5.8 2.2-5 2Z"/>
	<path fill="none" stroke="#098DAC" stroke-width=".3"
	      d="M347 629c-3 .2-6-.3-9 0-14.4 1.4-34 3-48 8h-1c-3 2.2-12 3.1-16 4-14.8 3.2-30 10.6-45 12-4 1.3-8.3 4.7-13 5 6.5 5.5 14 13.6 22.7 17.3 8.7 3.7 22.1-6.7 32.3-5.3 21-6.6 43.9-3.9 67-2-1.3 2.5-5.7-.6-7 2 1.4.2 3.2.9 4 1h4c5.4.5 10.6 2.4 16 3 2.8-2.8 3.7.6 5 1 3 .3 7.6 1.4 11 2 2.6.5 5.8 1.3 8 2h2c15.5-1 33.3.3 49 0h5c2.1-.2 5.4-1.6 8-2h3c6.3-1.4 14.2-3.8 21-4h3c6.6-1.2 13.8-3.5 21-4h4c11.3-1.5 24.1.1 36-1 1-1 8-2 9-2-20.5-10.7-33.7-25-57-30-1.7 0-3.3.6-6 1s-3.9-3.4-2-2c-2.2-.6-5.7-2.5-8-3-5-1-11.4-2.3-16-3-2.6 0-5.4.2-8 0-4.1-.3-9.4-1.6-13-2h-67c-4.4.6-10.1 1.7-15 2Z"/>
	<path fill="none" stroke="#B0ECF1" stroke-width=".3" d="M442 629c-4-.8-8-2-13-2 3.6.4 8.9 1.7 13 2Z"/>
	<path fill="none" stroke="#D2F8FA" stroke-width=".3"
	      d="M290 637c14-5 33.6-6.6 48-8-5.5 0-19.8-1.7-25 2-5 3.9-21.5.4-23 6Z"/>
	<path fill="none" stroke="#D1F8FA" stroke-width=".3" d="M466 632a35 35 0 0 0-16-3c4.6.7 11 2 16 3Z"/>
	<path fill="none" stroke="#168889" stroke-width=".3"
	      d="M482 636c-2.6-.5-5.4-.3-8-1-1.9-1.4-.7 2.4 2 2 2.7-.4 4.3-1 6-1Z"/>
	<path fill="none" stroke="#9FE8EC" stroke-width=".3" d="M273 641c4-.9 13-1.8 16-4-7 0-10.5 2.2-16 4Z"/>
	<path fill="none" stroke="#CFF4F5" stroke-width=".3"
	      d="M276 669c-2 .2-4 .7-6 1-10.2-1.4-23.7 9-32.3 5.3-8.7-3.7-16.2-11.8-22.7-17.3 4.7-.3 9-3.7 13-5-5-.8-9.4 1.4-13 4-1.9-1.1-2.6-3.9-5-4-1.5 4.5 5.9 4.4 2 9 4.5.7 9 5.8 13 7 4 1.3 7.5 5 5 8 2.8-.4 10.3-1.3 6 3 4.8-3.2 8.4 3.8 13 0-2.7.3-5-.1-7-2 10.5-2.5 22.6-5.3 34-9Z"/>
	<path fill="none" stroke="#25949F" stroke-width=".3"
	      d="M270 670c2-.3 4-.8 6-1h4c11.5-1.6 27.6-2.5 39 0h3c2.8.1 5.2.7 8 1 1.3-2.6 5.7.5 7-2-23.1-1.9-46-4.6-67 2Z"/>
	<path fill="none" stroke="#3EA7A5" stroke-width=".3"
	      d="M530 668c-.3.3 0 1 0 1h6c3 .2 5.8 1.6 9 1-.6-1.3-2.9-1.3-3-3-1.3-.3-1.9-.4-3-1-1 0-8 1-9 2Z"/>
	<path fill="none" stroke="#BEF8F6" stroke-width=".3"
	      d="M536 669c1.7 3.7 6.8 1.3 10 2 1-4.1-1.3-3.4-4-4 .1 1.8 2.4 1.7 3 3-3.2.6-6-.8-9-1Z"/>
	<path fill="none" stroke="#94F2F3" stroke-width=".3" d="M280 669h39a125.6 125.6 0 0 0-39 0Z"/>
	<path fill="none" stroke="#AEF6FA" stroke-width=".3" d="M494 669h36s-.3-.7 0-1c-11.9 1.1-24.7-.5-36 1Z"/>
	<path fill="none" stroke="#B2F4F6" stroke-width=".3"
	      d="M334 671c-.8-.1-2.6-.8-4-1-2.8-.3-5.2-.9-8-1a25 25 0 0 0 12 2Z"/>
	<path fill="none" stroke="#BBF0F4" stroke-width=".3"
	      d="M469 673c5.6.1 10.5-2.5 16-2s4-1.6 5-2c-7.2.5-14.4 2.8-21 4Z"/>
	<path fill="none" stroke="#B8EFF5" stroke-width=".3"
	      d="M354 675v-1c-5.4-.6-10.6-2.5-16-3 5 1.5 8.7 4 16 4Z"/>
	<path fill="none" stroke="#19A5A3" stroke-width=".3" d="M354 674v1c1.6 0 3.4-.2 5 0-1.3-.4-2.2-3.8-5-1Z"/>
	<path fill="none" stroke="#B9EBF4" stroke-width=".3" d="M445 677c8.3 0 15.1-1 21-4-6.8.2-14.7 2.6-21 4Z"/>
	<path fill="none" stroke="#9CF1F7" stroke-width=".3" d="M378 679c-2.2-.7-5.4-1.5-8-2 2 .7 4 2 8 2Z"/>
	<path fill="none" stroke="#A2F1F3" stroke-width=".3" d="M434 679c4.1 0 5.6-.8 8-2-2.6.4-5.9 1.8-8 2Z"/>
	<path fill="none" stroke="#AEEEF5" stroke-width=".3"
	      d="M402 681h16c4.4 0 8.6-1.5 11-2-15.7.3-33.5-1-49 0 3.3 4 16 2 22 2Z"/>
	<path fill="none" stroke="#E7FFF6" stroke-width=".3" d="M418 681h-16c1.5.3 4.5 2 8 2s6.5-1.7 8-2Z"/>
	<path fill="none" stroke="#BDF1F3" stroke-width=".3"
	      d="M258 689c7.2-3.8 16.9-2.5 25-4 8.1-1.5 19.4-1.7 28-1l11 1a65 65 0 0 0-22-2c-6.5.8-17.9-1.1-23 1-5 2.2-18.3.2-19 5Z"/>
	<path fill="none" stroke="#BCFAFB" stroke-width=".3"
	      d="M498 684c1.3-.2 2.7 0 4 0 9.5 0 18.9.4 28 1-8.4-1.8-22-3.1-32-1Z"/>
	<path fill="none" stroke="#23848D" stroke-width=".3"
	      d="M258 689v1c1 .6 3 .5 4 1 6.7-.4 16-4 24-4s16.7-2.9 25-3c-8.6-.7-19.9-.5-28 1-8.1 1.5-17.8.2-25 4Z"/>
	<path fill="none" stroke="#0A8BAA" stroke-width=".3"
	      d="M262 691c3 1.4 6.2 4.8 9 6 1.4.2 2 .6 3 1 4.7 1.9 11.3 3.8 15 7h1c22.8 5.3 44.6 17 68 20h4c2.5.3 6 1.8 8 2 2.6 0 5.4-.2 8 0a364 364 0 0 0 56 1l12-1c5.4-.5 12.2-2 18-3a90.6 90.6 0 0 1 26-7c-4.3-3.6 3.6-.8 6-2s6.3-3 10-2c17.3-5.8 32.9-13.8 49-22-2.2 0-5.6-3.3-8-4-2.8-.5-6.6-1.7-9-2-2.6 0-5.4.2-8 0-9.1-.6-18.5-1-28-1-6 1.3-13.3 2.4-19.9 4.1-6.6 1.8-14.5 1.8-21.1 1.9-2 .5-3.6 1.3-6 1h-1c-5.1 2.8-13.9 3.5-20 4-2.6.2-5.4 0-8 0-2.1.2-5.2 1-8 1-6.4.6-14 1-21 1-3 0-9 1-11-1-.3-.3 0-1 0-1-6.8 0-12.6-1-19-2-3.2-.5-6.3-1.4-9-2-12.2-.5-24-5-36-6l-11-1c-8.3.1-17 3-25 3s-17.3 3.6-24 4Z"/>
	<path fill="none" stroke="#269096" stroke-width=".3"
	      d="M488 685c-5.9.7-12.7 3.5-19 4h-5c-.5.1-2 .8-3 1 6.6-.1 14.5-.1 21.1-1.9 6.6-1.8 13.8-2.8 19.9-4.1-1.3 0-2.7-.2-4 0-3 .6-6.4 1-10 1Z"/>
	<path fill="none" stroke="#C1EFF2" stroke-width=".3"
	      d="M469 689c6.3-.5 13.1-3.3 19-4h-12c-3.2.2-5.5 3.6-7 4Z"/>
	<path fill="none" stroke="#C5F7F6" stroke-width=".3"
	      d="M547 687c3.7.6 7.1 2 11 2-3.5-4.6-14.3-4-20-4 2.4.3 6.2 1.5 9 2Z"/>
	<path fill="none" stroke="#2F9089" stroke-width=".3"
	      d="M555 691c1-.5 4.1.3 4-2h-1c-3.9 0-7.3-1.4-11-2 2.4.7 5.8 4 8 4Z"/>
	<path fill="none" stroke="#C3F6F7" stroke-width=".3"
	      d="M455 691c2.4.3 4-.5 6-1 1-.2 2.5-.9 3-1-3 0-8.1-1.2-9 2Z"/>
	<path fill="none" stroke="#C4F3F6" stroke-width=".3"
	      d="M555 691c-16.1 8.2-31.7 16.2-49 22a278.8 278.8 0 0 1-42 11c-5.8 1-12.6 2.5-18 3 11.8 3.7 21.6-2.1 33-4 11.4-2 22.2-7.7 35-8 1.5-5.9 10.8-7 15.4-9.2 4.7-2.1 12-4.6 16.7-7.7 4.7-3 10.6-3.7 15.9-7.1-.2-1.6-1.8-1.8-3-2 .1 2.3-3 1.5-4 2Z"/>
	<path fill="none" stroke="#BAEFF1" stroke-width=".3"
	      d="M271 697c-2.8-1.2-6-4.6-9-6-1-.5-3-.4-4-1-.4 3.6 10 6.5 13 7Z"/>
	<path fill="none" d="M659 836h161V690a540.3 540.3 0 0 1-161 146Z"/>
	<path fill="none" stroke="#BDEFF0" stroke-width=".3" d="M367 693c-2.3-.8-4.9-1.8-9-2 2.7.6 5.8 1.5 9 2Z"/>
	<path fill="none" stroke="#BCECF2" stroke-width=".3" d="M434 695c6.1-.5 14.9-1.2 20-4-8 0-13.5 2.7-20 4Z"/>
	<path fill="none" stroke="#BEFAFA" stroke-width=".3"
	      d="M386 696c3.6.3 7.4 0 11 0h21c2.8 0 5.9-.8 8-1h-40s-.3.7 0 1Z"/>
	<path fill="none" stroke="#34827D" stroke-width=".3" d="M397 697v-1c-3.6 0-7.4.3-11 0 2 2 8 1 11 1Z"/>
	<path fill="none" stroke="#6FA4A8" stroke-width=".3" d="M397 697c7 0 14.6-.4 21-1h-21v1Z"/>
	<path fill="none" stroke="#BFEFF3" stroke-width=".3"
	      d="M289 705c-3.7-3.2-10.3-5.1-15-7 4.4 3 8.5 8.2 15 7Z"/>
	<path fill="none" stroke="#C0F1F4" stroke-width=".3"
	      d="M358 725c-23.4-3-45.2-14.7-68-20 1 5 10.8 2.2 10 8 20 2.4 36.6 12 58 12Z"/>
	<path fill="none" d="M0 836h144A538 538 0 0 1 0 712v124Z"/>
	<path fill="none" stroke="#279098" stroke-width=".3"
	      d="M464 724c14.3-2.4 28.7-6.5 42-11-3.7-1-7.6.8-10 2-2.4 1.2-10.3-1.6-6 2-9.7.9-18.3 3.9-26 7Z"/>
	<path fill="none" stroke="#BCF3F6" stroke-width=".3" d="M370 727c-2-.3-5.5-1.8-8-2 2 .6 4.2 2 8 2Z"/>
	<path fill="none" stroke="#84E1E9" stroke-width=".3"
	      d="M434 728a364 364 0 0 1-56-1c7.2 1.5 18.6 2.6 28 2 9.4-.6 19.3.7 28-1Z"/>
	<path fill="none" stroke="#FDFFFE" stroke-opacity=".5" stroke-width=".3"
	      d="M382 836h20c-5.7-1.8-13.5-1-20-1v1Z"/>
	<path fill="none" stroke="#FDFFFD" stroke-opacity=".7" stroke-width=".3"
	      d="M420 836h12c-2.9-1.7-9-1.6-12 0Z"/>
	<path fill="none" stroke="None" d="M0 73C21.2 47 45.7 22.2 71 0H0v73Z"/>
	<path fill="none" stroke="None"
	      d="M0 75v634a542.9 542.9 0 0 0 148 127h234v-1c-42.8 0-90.7-15-128.7-30.3-38-15.4-68.2-35-99.6-60.5A387 387 0 0 1 77.2 662a427.1 427.1 0 0 1-54-106C8.8 516.3 1 462.7 1 418s7.8-97.4 22-137a418 418 0 0 1 53.8-106.3c23.4-32.9 44.9-57 76.3-82.6a381 381 0 0 1 99.6-60.4C290.7 16 339 1 382 1V0H73A697.5 697.5 0 0 0 0 75Z"/>
	<path fill="#FDFFFE" fill-opacity=".5" stroke="None" d="M382 1c6.5 0 14.3.8 20-1h-20v1Z"/>
	<path fill="#FCFEFD" stroke="None"
	      d="M382 1c-43 0-91.3 15.1-129.3 30.7A381 381 0 0 0 153 92a390.9 390.9 0 0 0-76.3 82.7 418 418 0 0 0-53.9 106.1A436.1 436.1 0 0 0 1 418c0 44.7 7.8 98.3 22 138 14.4 39.6 30.7 73 54 106a387 387 0 0 0 76.8 82.3c31.3 25.4 61.5 45 99.5 60.4C291.3 820 339.2 835 382 835c6.5 0 14.3-.8 20 1h18c3-1.6 9.1-1.7 12 0h7a410 410 0 0 0 261.8-122.3A426.3 426.3 0 0 0 820 448v-8c-1.6-3-1.7-9.1 0-12v-19c-1.7-2.1-1-6.1-1-9v-12c0-51-18.8-108.3-39.3-152.7a391.8 391.8 0 0 0-79-113 393.7 393.7 0 0 0-111-81A425 425 0 0 0 439 0h-1c-5 1.6-13.1 1.7-18 0h-18c-5.7 1.8-13.5 1-20 1m28 93c2.4-2.5 5.5-4.8 8-7 22.2-19 50.6-33.7 79-21 28.6 12.5 46 20 67.3 43.8 21.2 23.6 10.9 61.6 3.7 89.2-1.2 4.5-7.6 13.9-5 18a241 241 0 0 1 30.8 20.3c9.5 7.3 22 21.5 11.4 33-10.6 11.4-26.7 10.5-41.2 10.7 12.1 19.8 24.6 39.4 35 60 11.7-1.8 22.6-6.8 35-6 5-.5 11-.5 16 0 14 0 27 2.9 40 7a180.3 180.3 0 0 1 34.7 16.3c9 5.4 16.1 13.2 24.5 19.4 8.5 6.3 18.4 20.8 4.6 22a145 145 0 0 0-36.9 7.2c-11.5 4.1-20 7.4-29 14a70.4 70.4 0 0 0-22.1 21.9c-5.5 9.5-12.4 17.7-13.6 29.4-1.1 11.7 4.3 26.2 4.8 38.8.5 12.6 1.2 29.5 0 42-.3 3.3 0 6-1 9-.5 1.7-1 3.4-2 5-21.9-10.7-41.5-26.1-61-41 2.1 12.9 7.9 26.4 12.8 38.2a383.2 383.2 0 0 0 37 65c7.1 10 12.7 21 21 30 8.2 9.1 20.9 27.4 3.2 26.8a245 245 0 0 1-85-17c-13.2-4.8-22.4-10.7-34-17-11.8-6.2-20.2-13.6-31-21a55.4 55.4 0 0 0-27-6c2-4.3-9.2-4-14.7-6.3-5.4-2.3-13.6-1.8-17.6-7.4-4-5.6-7.5-8.6-12-14-4.5-5.3-4-13.8-3.7-21.3.3-7.5 1.2-16 2.8-23.2 1.6-7.1.5-15 3.5-21.5 3-6.6 1.5-13.8 7.7-18.3.4-3 2-6 3-9 8.1-23.1 25-42.2 39-62-3.6-3.5-8-6-11-10-4.6-4-9.5-7.8-14-12-16.9-15.6-38-25.8-56-39-5.1-2.5-10.2-5.7-15-9-12.2-8.5-26-14.8-39.7-21.3-13.7-6.5-29-14.5-43.3-17.7-4.6-1-5-2.2-8-4-11.6-3.6-26-10.8-39-12-12.3-1.1-32.2-4.7-41-12h-2c-12.2 0-22.3-4.3-31-8-3.1-.6-2.2-.7-4-2-2.7-.9-6.2-.3-9-1-7.6-2-15-4.5-23-5-3.3-.2-6.6-1.7-8-2-8.7-.8-16.4-2.7-25-4 10-15.9 22.5-24.5 38.7-34.3 16.2-9.8 33.6-17 50.3-24.7 2.9-2 4.7-3.5 9-3h2c2.5-3.2 13.5-4.8 18-6 9.4-4.3 18-8 30-8h2c2.1-2.6 5-2 9-2 1.6 0 3.5.3 5 0l3-1c2.9-.7 6.8-.3 10-1 2.3-.5 6.7-2 11-2h45c4.4 0 7.5 1.4 11 2a266 266 0 0 1 29 4c3.1.6 6.8 1.2 10 2-3-2.5-5.3-7.5-10.3-7.7-5-.2-6.6-5.7-9.7-8.3-28.5-7.7-62.8-16.4-94-13a301.8 301.8 0 0 0-86 21c-1.8.8-3.9 2.2-6 3a258 258 0 0 0-55 29c-7 5-14.1 10.7-21 16-9 7-26.6 18.2-24 31 2.5 12.8 10 30.4 15 43 6 8 16.4 15.3 21.8 25.3 5.3 9.9 16.8 17.5 19.2 28.7 8 4.3 11.7 13.7 17.8 20.3 6 6.5 10.6 15.6 16.4 22.4 5.9 7 10 15.3 15.6 22.6 5.5 7.2 10 16.5 15 24 4.9 7.3 9 18.5 15.2 21.7.1 9.6 8 18.1 11.3 27.7 3.3 9.5 8.2 19 12.7 28.3 7.6 13.8 23.5 23.4 34.8 34.3A285 285 0 0 0 340 608c2 1.3 4.6 2.1 6 4-1.8 2-5.5.5-8 1-13.3.5-27.4 3.7-40.2 5.8A370 370 0 0 0 259 627c-12 3.3-23.9 7.2-35 11-11.3 3.7-23.8 9.1-34 13-10.4 3.8-24 11.1-33 14-9 2.8-26.2 17.5-30 6-3.8-11.6 5.6-28.2 7.8-39.2 2.2-11 8.8-22.2 13.5-32.5 4.7-10.3 11.3-20.1 17-30 5.8-9.8 12.5-18.3 19.4-27.5a230 230 0 0 1 21-25c8.7-9-5.4-18.7-11-27.5-5.5-8.9-13.3-17.5-19.4-26.6-6.2-9-12.3-19.1-18.6-28.4-6.3-9.3-12-19.5-17.6-29.4-5.6-9.8-11.3-19.3-16.4-29.6-5.1-10.3-10-21.4-15-32a314 314 0 0 1-13-33A185.7 185.7 0 0 1 85 273c-1.2-11.6 11.5-17.9 18.8-26.3 7.3-8.3 16.2-14.6 25-21 8.7-6.3 18.2-14 28-19 9.7-4.8 20.3-14 31.2-15.7l6-3c26.4-11.5 54.2-21 83-26-6.5-7-24.5-28.3-9.8-35.8 14.8-7.4 34 .7 49 2.6 15 1.8 31.2 7.7 45.8 11.2 14.7 3.4 28.5 9 43 13s28.5 10 43 14c8.1 1.2 14.8 2.1 22.7-3.3 8-5.4.7-15.3-4.7-18.7-38.8-15.2-78.2-28.8-120-34 6-11.3 15.4-18.7 22.8-29.3 7.3-10.5 17.7-17.2 26.3-26.6 8.6-9.4 29.8-16.8 29.9.9.1 17.7-9.5 23.3-15 38m281 203c3.4 4.9 6.5 9 9 15s7 11.6 7 19c0 7.5-8.2-2.2-8-2-14.3-1.4-26.8-10.4-43-10-16.2.5-34-.6-49 5-3.8-4.2-4.6-10-8.3-14.7-3.7-4.8-4.2-11.1-8.7-14.3 3.9-1.7 8-2.5 12-4-1.8-1.9 8.4-3.3 9.1-8 .7-4.6 8.7-4.3 10.6-9.3 2-4.9 6-13.2 2.4-19.8-3.6-6.5-.8-9.3-7.9-16.2-7-6.8-15.2-20-27.2-20.7-1-4.8-11.8-5.9-7.7-11.7 4-5.9 3.6-11 5.7-17.3a71.3 71.3 0 0 1 29.9 20.1c8.5 8.5 20.5 15 25.1 24.9 8.8 2.9 11.2 12.5 18.2 18.8 7 6.2 13 13 16.6 21.4 3.6 8.4 11.8 15.2 14.2 23.8M146 570v1c.3 4.4-5.7 20.2-11 20-5.4-.2-5.2-17.1-13-17a9 9 0 0 0 0-7c-3-5.5-6-12-8-18-2.2-3.8-4.8-7.8-6-13-4-10.5-8.5-20-11-31-1.7-4-6.2-10.2-6-16 5.8 3.7-1.4-5.5-2-11-.5-5.6-2-14.5-3.3-20.7A86 86 0 0 1 84 436c.3-7.2-.5-16.7 0-24 .5-7.3-1.2-16 0-23s2-13 2.3-19.7c.3-6.6 4.8-12 5.7-18.3.3-2-1-5 1-6 4.1 6.4 4.7 15.8 9.3 21.7 4.6 5.9 5.1 17 11.7 18.3-1.5 14.6 16.4 24.8 16 40 7.8 3 8.6 13.5 14.3 19.8 5.6 6.2 8.7 14.3 13.6 21.3 5 7 9.4 12 14.8 19.2 5.4 7.2 10.3 10.8 15.6 19.4 5.3 8.6-6 13-7.3 22.3-11 .9-10.4 16.2-17.3 21.7-7 5.5-11 15.1-17.7 21.3m116-186h13c19-.4 36.7-6.5 53-15-3.9-11.2 16.8-16 22.8-5.8s-8.3 14.8-16.6 21c-8.2 6.3-17.8 9-28.4 12.6C295 400.4 281 400 269 402c-12.1 1.9-24-5-36-5-12.1 0-21.7-18-7-19s21.4 8.5 36 6m444 161c-2.9 8-6.5 14-9.1 21.9-2.6 7.8-8.7 12.6-12.2 19.8-3.5 7.2-9.6 12.6-10.7 19.3-6.5-1.2-7.4 9.3-13 11-6.4 6.1-11-1.4-14-9-.4-1-.5-2-1-3-2.1-2.7-4.1-5.2-6-9-.6-1.2-1.3-2-2-3-2.5-3.2-4.8-5.8-6-10-.4-1.4-.2-1-1-2-3-3.9-5.3-7-5-12 2 .4 3.7 2.2 5 4 5.5 4.4 13 6.5 19 10 5.8 2.1 11.5 4.3 17 6 .4-10.4 3.2-20.6 4.8-32.2 1.5-11.6 2.9-26.8 2.2-38.8-.7-12-4.1-24.1-5.8-35.2-1.6-11 5.4-21.4 11.1-29.5a78 78 0 0 1 21-20c8-5.4 19.7-12.3 27.7-10.3 1.5 43-6 84-22 122m-590 12c2 9.1-5 5.5 0 0m307 70h6c5 0 9 1.2 13 2 2.6.2 5.4 0 8 0 7 0 10.6.7 16 3 2.3.5 5.8 2.4 8 3 2.6.7 5.4.5 8 1 23.3 5 36.5 19.3 57 30 1.1.6 1.8.7 3 1 2.7.6 5-.1 4 4-3.2-.7-8.3 1.7-10-2h-46c-1 .4.5 2.5-5 2s-10.4 2.1-16 2h-3c-5.9 3-12.7 4-21 4h-3c-2.4 1.2-3.9 2-8 2h-5c-2.4.5-6.6 2-11 2-1.5.3-4.5 2-8 2s-6.5-1.7-8-2c-6 0-18.8 2-22-2h-2c-4 0-6-1.3-8-2-3.4-.6-8-1.7-11-2-1.6-.2-3.4 0-5 0-7.3 0-11-2.5-16-4h-4a25 25 0 0 1-12-2h-46c-11.4 3.7-23.5 6.5-34 9 2 1.9 4.3 2.3 7 2-4.6 3.8-8.2-3.2-13 0 4.3-4.3-3.2-3.4-6-3 2.5-3-1-6.7-5-8-4-1.3-8.5-6.3-13-7 3.9-4.6-3.5-4.5-2-9 2.4.1 3.1 2.9 5 4 3.6-2.6 8-4.8 13-4 15-1.4 30.2-8.8 45-12 5.5-1.8 9-4 16-4h1c1.5-5.6 18-2.1 23-6 5.2-3.7 19.5-2 25-2 3-.3 6 .2 9 0-.8.2 2-3 5-2s6.9 0 10 0h4c17.4-4 39.5-2.3 57 0m-101 58c12 1 23.8 5.5 36 6 4.1.2 6.7 1.3 9 2 6.4 1 12.2 2 19 2h40c2.6 0 5.4.2 8 0 6.5-1.3 12-4 20-4h1c.9-3.2 6-2 9-2h5c1.5-.4 3.8-3.8 7-4h12c3.6 0 7-.4 10-1 10-2.1 23.6-.8 32 1 2.6.2 5.4 0 8 0 5.7 0 16.5-.6 20 4h1c1.2.3 2.8.4 3 2-5.3 3.4-11.2 4-15.9 7.1-4.6 3-12 5.5-16.7 7.7-4.6 2.1-13.9 3.4-15.4 9.2-12.8.3-23.6 6-35 8-11.4 1.9-21.2 7.7-33 4l-12 1c-8.7 1.7-18.6.4-28 1-9.4.6-20.8-.5-28-2-2.6-.2-5.4 0-8 0-3.8 0-6-1.4-8-2h-4c-21.4 0-38-9.6-58-12 .8-5.8-9-3-10-8h-1c-6.5 1.2-10.6-4-15-7-1-.4-1.6-.8-3-1-3-.5-13.4-3.4-13-7v-1c.7-4.8 14-2.8 19-5 5.1-2.1 16.5-.3 23-1a65 65 0 0 1 22 2Z"/>
	<path fill="#FDFFFE" fill-opacity=".6" stroke="None" d="M438 0h-18c4.9 1.7 13 1.6 18 0Z"/>
	<path fill="none" stroke="None"
	      d="M819 388h1V97c-18.2-24.7-40.7-48.2-61-72 22.8 21.2 41.7 46.2 61 69V0H439a425 425 0 0 1 150.8 41.2 393.7 393.7 0 0 1 111 81c34 35.5 58.4 68.7 78.9 113.1C800.2 279.7 819 337 819 388M758 25c-5.4-3-11.1-8.6-14-14 5 4.2 9.9 9 14 14Z"/>
	<path fill="none" stroke="None"
	      d="M758 25c-4.1-5-9-9.8-14-14 2.9 5.4 8.6 11 14 14Zm62 72v-3c-19.3-22.8-38.2-47.8-61-69 20.3 23.8 42.8 47.3 61 72Z"/>
	<path fill="#02293B" stroke="None"
	      d="M466 145a579 579 0 0 1 102 54c7.2-27.6 17.5-65.6-3.8-89.3-21.1-23.6-38.6-31.2-67.1-43.8C468.6 53.3 440.2 68 418 87c-3.6 3.6-7 8.7-11 11 1-1.3 1-3.6 3-4 5.5-14.7 15.1-20.3 15-38-.1-17.7-21.3-10.3-30-1-8.5 9.5-18.9 16.2-26.3 26.8C361.4 92.3 352 99.7 346 111c41.8 5.2 81.2 18.8 120 34Z"/>
	<path fill="#7594A2" stroke="None" d="M410 94c-2 .4-2 2.7-3 4 4-2.3 7.4-7.4 11-11-2.5 2.2-5.6 4.5-8 7Z"/>
	<path fill="#032A3C" stroke="None"
	      d="M194 188c-.5 1.3 1 1.9 1 3h-7c-10.9 1.6-21.5 10.9-31.3 15.8-9.7 4.8-19.2 12.6-28 19-8.7 6.3-17.6 12.6-25 21C96.5 255 83.8 261.4 85 273c1.2 11.6 5.9 26.2 9.7 37.3a314 314 0 0 0 13 33c5 10.6 9.9 21.7 15 32s10.8 19.8 16.4 29.6c5.6 9.9 11.3 20.1 17.6 29.4 6.3 9.3 12.4 19.4 18.6 28.4 6 9 13.9 17.7 19.4 26.6 5.6 8.8 19.7 18.6 11 27.4-8.6 9-14 15.8-21 25-7 9.3-13.6 17.8-19.4 27.6-5.7 9.9-12.3 19.7-17 30-4.7 10.3-11.3 21.5-13.5 32.5-2.2 11-11.6 27.6-7.8 39.2 3.8 11.5 21-3.2 30-6 9-2.9 22.6-10.2 33-14 10.2-3.9 22.7-9.3 34-13 11.1-3.8 23-7.7 35-11 12-3.4 26-6.2 38.8-8.2 12.8-2 26.9-5.3 40.2-5.8-.4-1.8.2-4.5 2-5-13-8.6-28-19-39.3-29.8-11.2-10.8-27-20.4-34.7-34.2-57.9-69.1-112.2-137.5-145-221-5-12.6-12.5-30.2-15-43-2.6-12.8 15-24 24-31 4.8-9.2 9.8-13.8 21-16a258 258 0 0 1 55-29c-.3 0-1.9-1.5-2-2 2.3-1.7 5.3-.7 8-1a301.8 301.8 0 0 1 86-21c31.2-3.4 65.5 5.3 94 13 1 .3 2-.1 3 0 28.6 4.3 56 21.6 82.2 32.8 26.2 11.1 44.5 32 60.7 55.3 16.3 23.2 30.2 47 42.9 73.1 12.6 26.2 25.4 52.6 35 81 9.5 28.5 19.3 63.6 21.2 94.8-15.2-8.3-23-16.3-37.3-27.8-14.2-11.4-8.5-37.3-4.7-53.2-19.2-.6-29.6 20.4-33 36-.7 34.7 4 74.7 21 104 16.8 29.5 31 48.2 55 72a205.9 205.9 0 0 1-115.8-52.3c-32-29-49-66.6-63.2-104.7-1 3-2.6 6-3 9-3 23.2 9.6 49.8 20.3 68.7 10.7 18.9 24.3 35 40.7 49.3 10.8 7.4 19.2 14.8 31 21 11.6 6.3 20.8 12.2 34 17a244.2 244.2 0 0 0 85 17c17.7.6 5-17.7-3.3-26.8-8.2-9-13.8-20-21-30a383.2 383.2 0 0 1-37-65C601 552.4 595.2 539 593 526c19.5 14.9 39.1 30.3 61 41 1-1.6 1.5-3.3 2-5 .2-2-2-6.4-2-9h3c1.2-12.5.5-29.4 0-42-.5-12.6-6-27-4.8-38.8 1.2-11.7 8.1-19.9 13.5-29.4a70.4 70.4 0 0 1 22.2-21.9c9-6.6 17.5-9.9 29-14a145 145 0 0 1 36.9-7.1c13.8-1.3 3.9-15.8-4.5-22-8.5-6.3-15.6-14-24.6-19.5-9-5.4-18.8-10.5-28.7-14.3-1 0-4.3 2.1-6 1v-3c-13-4.1-26-7-40-7h-16c-12.4-.8-23.3 4.2-35 6-10.4-20.6-22.9-40.2-35-60 14.5-.2 30.6.7 41.2-10.8 10.6-11.4-2-25.6-11.5-33A241 241 0 0 0 563 217c-36.6-20.2-76.5-35.4-115-50-14.5-4-28.5-10-43-14s-28.3-9.6-43-13c-14.6-3.5-30.8-9.4-45.8-11.2-15-1.9-34.2-10-49-2.6-14.7 7.5 3.3 28.9 9.8 35.8-28.8 5-56.6 14.5-83 26m488 172c3.3 1 6.7 1.7 10 3 2 .8 3.6 2.4 6 2-10 2.7-21.6 1.7-32 4-10.4 2.3-17.3 4.7-27.7 8.3-10.3 3.6-5.7 20.2-10.3 26.7-3.7-12.8-10-25-16-37-.5-1-4.3-8.1-4-9 1.6-4.6 12.3-2.4 17-4 4.7-1.6 15.2-1 21-1 5.8 0 13.2 1.2 19 2 5.8.8 11.8 3.3 17 5Z"/>
	<path fill="#B5D9E3" stroke="None"
	      d="M448 167c38.5 14.6 78.4 29.8 115 50-2.6-4.1 3.8-13.5 5-18a579 579 0 0 0-102-54c5.4 3.4 12.6 13.3 4.7 18.7-8 5.4-14.6 4.5-22.7 3.3Z"/>
	<path fill="#113534" stroke="None" d="M188 191h7c0-1.1-1.5-1.7-1-3l-6 3Z"/>
	<path fill="#B1EBF6" stroke="None"
	      d="M699 329c2 .2 4-.1 6 0-2.6-11.6-10.2-21-14-32-2.4-8.6-10.6-15.4-14.2-23.8a61.8 61.8 0 0 0-16.6-21.4c-7-6.3-9.4-16-18.2-18.8-4.6-9.9-16.6-16.4-25.1-24.9A71.3 71.3 0 0 0 587 188c-2.1 6.3-1.7 11.4-5.7 17.3-4 5.8 6.8 7 7.7 11.7 12 .6 20.2 14 27.3 20.8 7 6.8 4.2 9.6 7.8 16.1 3.5 6.6-.4 14.9-2.4 19.8-2 5-9.9 4.7-10.6 9.4-.7 4.6-11 6-9.1 7.9-4 1.5-8.1 2.3-12 4 4.5 3.2 5 9.5 8.7 14.3 3.7 4.8 4.5 10.5 8.3 14.7 15-5.6 32.8-4.5 49-5 16.2-.4 28.8 8.6 43 10Z"/>
	<path fill="#C7EEF1" stroke="None"
	      d="M412 209c1.3.3 3.6.9 5 2 1.5 1 5.3-.4 3-1-7.2-4.7-17.2-14.1-25-17-1-.1-2 .3-3 0 3.1 2.6 4.7 8 9.7 8.3 5 .2 7.4 5.2 10.3 7.7Z"/>
	<path fill="#1686AA" stroke="None"
	      d="M420 210a304.1 304.1 0 0 1 74.9 64.1 290 290 0 0 1 52 88c13.4 35 15.9 83.2 15.1 122.9 3.4-15.6 13.8-36.6 33-36-3.8 16-9.5 41.8 4.8 53.3 14.2 11.4 22 19.4 37.2 27.7-1.9-31.2-11.7-66.3-21.2-94.8-9.6-28.4-22.4-54.8-35-81a522.2 522.2 0 0 0-42.9-73.1c-16.2-23.3-34.5-44.2-60.7-55.3-26.2-11.2-53.6-28.5-82.2-32.8 7.8 2.9 17.8 12.3 25 17Z"/>
	<path fill="#163535" stroke="None" d="M206 204c2.1-.8 4.2-2.2 6-3-2.7.3-5.7-.7-8 1 .1.5 1.7 2 2 2Z"/>
	<path fill="#B3F6FA" stroke="None" d="M306 203c3-1 8.3-1.7 11-2-4.3 0-8.7 1.5-11 2Z"/>
	<path fill="#3FB8D8" stroke="None"
	      d="M306 203c-.8.3-1.5 2.3-4 2-2.5-.3-3.8-1-6-1l-3 1c-6.7 5.2-21 4.8-30.7 7.3-9.6 2.6-22 8.7-33.3 8.7h-2c-2.7 2.6-5.5 1.7-9 3-16.7 7.8-34 14.9-50.3 24.7-16.2 9.8-28.7 18.4-38.7 34.3 8.6 1.3 16.3 3.2 25 4 2.6.2 5.9 1.6 8 2 8 .5 15.4 3 23 5 4 .2 5.6-1.4 9 1 1.8 1.3.9 1.4 4 2 10.2 2 21.8 3.6 31 8h2c14.2 1.7 27.8 8.4 41 12 13 1.2 27.4 8.4 39 12 2.8.9 5.6 3 8 4 14.3 3.2 29.6 11.2 43.3 17.7 13.7 6.5 27.5 12.8 39.7 21.3a99.6 99.6 0 0 1 15 9c18 13.2 39.1 23.4 56 39 24-20.5 38.9-49 49-77 1 4 3.7 7.5 3 12 .6 3.4.5 6.7 0 10a65.3 65.3 0 0 1-5 21c-2.4 6-5.5 12.4-8.8 17.2-3.2 4.9-7 11.7-11 15-3.8 3.4-8 13.5-13.2 13.8 3 4 7.4 6.5 11 10-14 19.8-30.9 38.9-39 62 14.1 38.1 31.2 75.8 63.3 104.8 32 29 73 47.8 115.7 52.2a302.3 302.3 0 0 1-55-72c-17-29.3-21.7-69.3-21-104 .8-39.7-1.7-87.9-15-123a289.8 289.8 0 0 0-52.1-87.9A304.1 304.1 0 0 0 420 210c2.3.6-1.5 2-3 1a13.8 13.8 0 0 0-5-2c-3.2-.8-6.9-1.4-10-2-2.9.2-2.7 4.3-8.7 1.7-6-2.6-19.7-4.8-27.3-6.7-1.4-.2-3.1-.8-4-1h-45c-2.7.3-8 1-11 2m80 116a28 28 0 0 1-10 0c-46.4-3.2-41-76.2 5-76 46 .2 51.2 72.9 5 76m96 16c14.9 3.7 9.5 29-6.2 25.2-15.8-3.8-11.1-29.5 6.2-25.2m65 35c10.4 32.4-11 64.3-34 86-4.1-3.5-8-8.8-13-11 8.3-12 18.9-21.6 27-34 8-12.5 12.7-29.4 20-41Z"/>
	<path fill="#B0F4F7" stroke="None" d="M366 202c2.5.3 4.5.8 7 1-3.5-.6-6.6-2-11-2 .9.2 2.6.8 4 1Z"/>
	<path fill="#52B8BD" stroke="None"
	      d="M402 207a266 266 0 0 0-29-4c-2.5-.2-4.5-.7-7-1 7.6 2 21.4 4 27.3 6.7 6 2.6 5.8-1.5 8.7-1.7Z"/>
	<path fill="#5CC5C6" stroke="None" d="M296 204c2.3 0 3.5.7 6 1 2.5.3 3.3-1.8 4-2-3.3.7-7.1.3-10 1Z"/>
	<path fill="#B6F7FC" stroke="None" d="M279 207c2.9-.3 6.6-1.7 9-2-4 0-6.9-.6-9 2Z"/>
	<path fill="#4ABCC2" stroke="None"
	      d="M279 207h-2c-9.6 2.8-20 5.3-30 8-4.5 1.2-15.5 2.8-18 6 11.2 0 23.7-6.1 33.3-8.7 9.6-2.5 24-2.1 30.7-7.3-1.5.3-3.4 0-5 0-2.4.3-6.1 1.7-9 2Z"/>
	<path fill="#C1F9FA" stroke="None" d="M247 215c10-2.7 20.4-5.3 30-8-12 0-20.6 3.7-30 8Z"/>
	<path fill="#BBF4F0" stroke="None" d="M218 224c3.5-1.3 6.3-.4 9-3-4.3-.5-6.1 1-9 3Z"/>
	<path fill="#0E3035" stroke="None" d="M130 249c6.9-5.3 14-11 21-16-11.2 2.2-16.2 6.8-21 16Z"/>
	<path fill="#032C3F" stroke="None"
	      d="M376 319c3.2.2 6.8.2 10 0 46.2-3.1 41-75.8-5-76-46-.2-51.4 72.8-5 76m6-38c2.7 9.4-8.9 13.9-15.2 9.2-6.4-4.6-5.2-16.6 3.2-17.2-1-11.6 12.7-18.2 22.2-11.2 9.6 7 2 22.2-10.2 19.2Z"/>
	<path fill="#F0F5F6" stroke="None"
	      d="M382 281c12.3 3 19.8-12.2 10.2-19.2-9.5-7-23.3-.4-22.2 11.2-8.4.6-9.6 12.6-3.2 17.2 6.3 4.7 17.9.2 15.2-9.2Z"/>
	<path fill="#BBF5FA" stroke="None" d="M162 289c-2.1-.4-5.4-1.8-8-2 1.4.3 4.7 1.8 8 2Z"/>
	<path fill="#5DCFCC" stroke="None" d="M185 294c2.8.7 6.3.1 9 1-3.4-2.4-5-.8-9-1Z"/>
	<path fill="#DAF8FB" stroke="None" d="M229 305c-9.2-4.4-20.8-6-31-8 8.7 3.7 18.8 8 31 8Z"/>
	<path fill="#E0F9FA" stroke="None"
	      d="M699 329c-.2-.2 8 9.5 8 2 0-7.4-4.5-13-7-19s-5.6-10.1-9-15c3.8 11 11.4 20.4 14 32-2-.1-4 .2-6 0Z"/>
	<path fill="#C6F3F7" stroke="None" d="M272 317c-13.3-3.6-26.8-10.3-41-12 8.8 7.3 28.7 10.9 41 12Z"/>
	<path fill="#056371" stroke="None" d="M386 319c-3.2.2-6.8.2-10 0 3.4.6 6.5.6 10 0Z"/>
	<path fill="#C0DDE6" stroke="None"
	      d="M266 544c-4.5-9.2-9.4-18.8-12.7-28.3-3.3-9.6-11.2-18.2-11.3-27.7-6.2-3.2-10.3-14.4-15.2-21.8-5-7.4-9.5-16.7-15-24-5.6-7.2-9.7-15.6-15.6-22.4-5.8-7-10.4-16-16.4-22.6-6.1-6.5-9.8-16-17.8-20.2-2.4-11.2-13.9-18.8-19.3-28.8-5.3-9.9-15.7-17.2-21.7-25.2 32.8 83.5 87.1 151.9 145 221Z"/>
	<path fill="#C0F3F8" stroke="None" d="M319 333c-2.4-1-5.2-3.1-8-4 3 1.8 3.4 3 8 4Z"/>
	<path fill="#6C7F7C" stroke="None" d="M634 335h16c-5-.5-11-.5-16 0Z"/>
	<path fill="#042F41" stroke="None" d="M482 335c-17.3-4.3-22 21.4-6.2 25.2 15.7 3.9 21-21.5 6.2-25.2Z"/>
	<path fill="#173231" stroke="None" d="M696 344c-2-.8-4-1.4-6-2v3c1.7 1.1 5-1 6-1Z"/>
	<path fill="#043044" stroke="None"
	      d="M473 420c4.5 4.2 9.4 8 14 12 5.2-.3 9.4-10.4 13.3-13.8 3.8-3.3 7.7-10.1 11-15 3.2-4.8 6.3-11.3 8.8-17.1A65.3 65.3 0 0 0 525 355c.7-4.5-2-8-3-12-10.1 28-25 56.5-49 77Z"/>
	<path fill="#B0ECF7" stroke="None"
	      d="M92 351c-3.5 25.4-7.4 52.5-6 79 1.4 26.5 5.4 49.8 11 75 2.5 11 7 20.5 11 31-2.7-11.2-7.5-21.7-10-33h87c8.6 5.9 1.3 11.8-4 17-5.1 5.4-9.2 12.2-14 18-7 9.8-12.8 22.6-21 31-.3.3 0 1 0 1 6.8-6.2 10.8-15.8 17.7-21.3 7-5.5 6.4-20.9 17.3-21.7 1.3-9.2 12.6-13.7 7.3-22.3-5.3-8.6-10.2-12.2-15.6-19.4-5.4-7.2-9.9-12.2-14.8-19.2s-8-15.1-13.7-21.4c-5.6-6.2-6.4-16.7-14.2-19.7.4-15.2-17.5-25.4-16-40-6.6-1.4-7.1-12.4-11.7-18.3-4.6-6-5.2-15.3-9.3-21.7-2 1-.7 4-1 6Z"/>
	<path fill="#E9FCFD" stroke="None"
	      d="M97 505a446.6 446.6 0 0 1-11-75c-1.4-26.5 2.5-53.6 6-79-1 6.3-5.4 11.7-5.7 18.3-.2 6.7-1.1 12.6-2.3 19.7-1.2 7 .5 15.7 0 23-.5 7.3.3 16.8 0 24a86 86 0 0 0 1.7 21.3c1.3 6.2 2.8 15.1 3.3 20.7.6 5.5 7.8 14.7 2 11-.2 5.8 4.3 12 6 16Z"/>
	<path fill="#AADCEB" stroke="None"
	      d="M608 358c23.6-4.4 51.6 1.9 74 2-5.2-1.7-11.2-4.2-17-5-5.8-.8-13.2-2-19-2-5.8 0-16.3-.6-21 1-4.7 1.6-15.4-.6-17 4Z"/>
	<path fill="#276887" stroke="None" d="M525 365c.5-3.3.6-6.6 0-10 .2 3.3.1 6.7 0 10Z"/>
	<path fill="#74C9E2" stroke="None"
	      d="M608 358c-.3.9 3.5 8 4 9 4.2 4.7 18.2-4.3 24-3 5.8 1.3 9.6-2.3 15-1 5.4 1.3 10.1-1.3 15 0s10.7-1.3 15 1c4.3 2.3 11-1 11-1-3.3-1.3-6.7-2-10-3-22.4-.1-50.4-6.4-74-2Z"/>
	<path fill="#052A3A" stroke="None"
	      d="M275 384c-4.2.5-9 .4-13 0-14.6 2.5-21.3-7-36-6s-5.1 19 7 19c12 0 23.9 6.9 36 5 12.1-1.9 26.1-1.6 36.8-5.2 10.6-3.7 20.2-6.3 28.4-12.6 8.3-6.2 22.5-10.8 16.6-21-6-10.1-26.7-5.4-22.8 5.8-16.3 8.5-34 14.6-53 15Z"/>
	<path fill="#228BAA" stroke="None"
	      d="M612 367c6 12 12.3 24.2 16 37 4.6-6.5 0-23 10.3-26.7 10.4-3.6 17.3-6 27.7-8.3 10.4-2.3 22-1.3 32-4-2.4.4-4-1.2-6-2 0 0-6.7 3.3-11 1s-10.1.3-15-1-9.6 1.3-15 0-9.2 2.3-15 1c-5.8-1.3-19.8 7.7-24 3Z"/>
	<path fill="#043246" stroke="None"
	      d="M547 370c-7.3 11.6-12 28.5-20 41-8.1 12.4-18.7 22-27 34 5 2.2 8.9 7.5 13 11 23-21.7 44.4-53.6 34-86Z"/>
	<path fill="#A9E7EF" stroke="None" d="M417 381a99.6 99.6 0 0 0-15-9c4.8 3.3 9.9 6.5 15 9Z"/>
	<path fill="#293C3A" stroke="None" d="M275 384h-13c4 .4 8.8.5 13 0Z"/>
	<path fill="#FDFFFE" fill-opacity=".3" stroke="None" d="M819 400h1v-12h-1v12Z"/>
	<path fill="#FDFFFD" fill-opacity=".8" stroke="None" d="M820 409v-9h-1c0 2.9-.7 6.9 1 9Z"/>
	<path fill="#A3E7F4" stroke="None"
	      d="M650 583c3.4 2 8.2 6 12.2 6.8 4 .7 9.3 7.6 12.8 7.2 5-6.5 11.1-13.5 15-21-4.5 3.8-13.7-.8-19 1 .6-2.5-1.2-6.3 1-8 .6-3.5 1.6-8 2-11 0-6.6.3-12.6 1-19 9.9 1.3 22.4 2 30 6 0-.2 1 0 1 0 16-38 23.5-79 22-122-8-2-19.6 4.9-27.8 10.3a78 78 0 0 0-20.9 20c-5.7 8.1-12.7 18.4-11 29.5 1.6 11 5 23.2 5.7 35.2.7 12-.7 27.2-2.2 38.8-1.6 11.6-4.4 21.8-4.8 32.2-5.5-1.7-11.2-3.9-17-6Z"/>
	<path fill="#FDFFFD" fill-opacity=".7" stroke="None" d="M820 440v-12c-1.7 2.9-1.6 9 0 12Z"/>
	<path fill="none" stroke="None"
	      d="M439 836h217a526.5 526.5 0 0 0 164-149V448a426.3 426.3 0 0 1-119.3 265.8A410 410 0 0 1 439 836Z"/>
	<path fill="#88DEEF" stroke="None"
	      d="M108 536c1.3 5.2 3.8 9.3 6 13l-2-5c18.1-2.8 36.4-4.9 55-6 4.8-5.8 8.9-12.6 14-18 5.3-5.2 12.6-11.1 4-17H98c2.5 11.3 7.3 21.8 10 33Z"/>
	<path fill="#BBDCE5" stroke="None"
	      d="M517 631a187.5 187.5 0 0 1-40.7-49.3c-10.7-19-23.4-45.5-20.3-68.7-6.2 4.5-4.7 11.7-7.7 18.3-3 6.6-2 14.4-3.5 21.5-1.6 7.1-2.5 15.7-2.8 23.2-.3 7.5-.8 16 3.7 21.3 4.5 5.4 8 8.4 12 14s12.2 5.1 17.6 7.4c5.5 2.2 16.6 2 14.7 6.3a55.4 55.4 0 0 1 27 6Z"/>
	<path fill="#0F8FAE" stroke="None"
	      d="M114 549c2 6 5 12.5 8 18 1.5 3 3.5 5.9 5 9 2.2 3 5.6 3 9 3 4.1-1.3 4.8-10.1 10-10 8.2-8.4 14-21.3 21-31a594.3 594.3 0 0 0-55 6l2 5Z"/>
	<path fill="#1290AD" stroke="None"
	      d="M674 558c0 4.8-1 8.1-2 11-2.2 1.7-.4 5.5-1 8 5.3-1.8 14.5 2.8 19-1 5.2-10 11-20.5 15-31-7.6-4-20.1-4.7-30-6-.7 6.4-1 12.4-1 19Z"/>
	<path fill="#D1F6F8" stroke="None"
	      d="M690 576c-3.9 7.5-10 14.5-15 21-2 2.5-4.2 6.1-6 9-2.5 4-5.4 7.5-8 11 5.6-1.7 6.5-12.2 13-11 1.1-6.7 7.2-12 10.7-19.3 3.5-7.2 9.6-12 12.2-19.8 2.6-7.8 6.2-13.9 9.1-21.9 0 0-1-.2-1 0-4 10.5-9.8 21-15 31Z"/>
	<path fill="#143636" stroke="None" d="M656 562c1-3 .7-5.7 1-9h-3c0 2.6 2.2 7 2 9Z"/>
	<path fill="#E7FEEA" stroke="None" d="M116 557c-5 5.5 2 9.1 0 0Z"/>
	<path fill="#29A1A2" stroke="None" d="M672 569c1-2.9 2-6.2 2-11-.4 3-1.4 7.5-2 11Z"/>
	<path fill="#D5F7F7" stroke="None"
	      d="M146 571c-1.7 2-2.6 4.6-4 7a75.6 75.6 0 0 1-7 10c-2-4.5-6-7.5-8-12-1.5-3.1-3.5-6-5-9a9 9 0 0 1 0 7c7.8-.1 7.6 16.8 13 17 5.3.2 11.3-15.6 11-20Z"/>
	<path fill="#1D989E" stroke="None"
	      d="M136 579c2.1 0 4.2.3 6-1 1.4-2.4 2.3-5 4-7v-1s-.3-.7 0-1c-5.2-.1-5.9 8.7-10 10Z"/>
	<path fill="#ACE9EF" stroke="None"
	      d="M631 581c-1.3-3.3-2.8-6.6-4-10l4 2c-1.3-1.8-3-3.6-5-4-.3 5 2 8.1 5 12Z"/>
	<path fill="#1793AD" stroke="None"
	      d="M631 581c.8 1 .6.6 1 2 2.4 3.4 4 6.4 6 10 .7 1 1.4 1.8 2 3 2 2.9 4.4 5.6 6 9 .5 1 .6 2 1 3 3.3 5.9 9.2 4.7 15 6 2.4-2.7 4.5-5.8 7-8 1.8-2.9 4-6.5 6-9-3.5.4-8.8-6.5-12.8-7.2-4-.8-8.8-4.8-12.2-6.8-6-3.5-13.5-5.6-19-10l-4-2c1.2 3.4 2.7 6.7 4 10Z"/>
	<path fill="#82DAE0" stroke="None"
	      d="M142 578c-1.8 1.3-3.9 1-6 1-3.4 0-6.8 0-9-3 2 4.5 6 7.5 8 12a74 74 0 0 0 7-10Z"/>
	<path fill="#A8EAEA" stroke="None" d="M638 593c-2-3.6-3.6-6.6-6-10 1.2 4.2 3.5 6.8 6 10Z"/>
	<path fill="#A3E1E2" stroke="None" d="M646 605c-1.6-3.4-4-6.1-6-9 1.9 3.8 3.9 6.3 6 9Z"/>
	<path fill="#91E0EA" stroke="None"
	      d="M647 608c3 7.6 7.6 15.1 14 9 2.6-3.5 5.5-7 8-11-2.5 2.2-4.6 5.3-7 8-5.8-1.3-11.7-.1-15-6Z"/>
	<path fill="#1A3D3A" stroke="None" d="M338 613c2.5-.5 6.2 1 8-1-1.4-1.9-4-2.7-6-4-1.8.5-2.4 3.2-2 5Z"/>
	<path fill="#CEF9FA" stroke="None" d="M366 627h12c11.3-1.1 24.8-1 36 0h9c-17.5-2.3-39.6-4-57 0Z"/>
	<path fill="#76AEAF" stroke="None" d="M378 627h36c-11.2-1-24.7-1.1-36 0Z"/>
	<path fill="#BDF1F7" stroke="None" d="M347 629c4.9-.3 10.6-1.4 15-2-3.1 0-7 1-10 0s-5.8 2.2-5 2Z"/>
	<path fill="#098DAC" stroke="None"
	      d="M347 629c-3 .2-6-.3-9 0-14.4 1.4-34 3-48 8h-1c-3 2.2-12 3.1-16 4-14.8 3.2-30 10.6-45 12-4 1.3-8.3 4.7-13 5 6.5 5.5 14 13.6 22.7 17.3 8.7 3.7 22.1-6.7 32.3-5.3 21-6.6 43.9-3.9 67-2-1.3 2.5-5.7-.6-7 2 1.4.2 3.2.9 4 1h4c5.4.5 10.6 2.4 16 3 2.8-2.8 3.7.6 5 1 3 .3 7.6 1.4 11 2 2.6.5 5.8 1.3 8 2h2c15.5-1 33.3.3 49 0h5c2.1-.2 5.4-1.6 8-2h3c6.3-1.4 14.2-3.8 21-4h3c6.6-1.2 13.8-3.5 21-4h4c11.3-1.5 24.1.1 36-1 1-1 8-2 9-2-20.5-10.7-33.7-25-57-30-1.7 0-3.3.6-6 1s-3.9-3.4-2-2c-2.2-.6-5.7-2.5-8-3-5-1-11.4-2.3-16-3-2.6 0-5.4.2-8 0-4.1-.3-9.4-1.6-13-2h-67c-4.4.6-10.1 1.7-15 2Z"/>
	<path fill="#B0ECF1" stroke="None" d="M442 629c-4-.8-8-2-13-2 3.6.4 8.9 1.7 13 2Z"/>
	<path fill="#D2F8FA" stroke="None" d="M290 637c14-5 33.6-6.6 48-8-5.5 0-19.8-1.7-25 2-5 3.9-21.5.4-23 6Z"/>
	<path fill="#D1F8FA" stroke="None" d="M466 632a35 35 0 0 0-16-3c4.6.7 11 2 16 3Z"/>
	<path fill="#168889" stroke="None" d="M482 636c-2.6-.5-5.4-.3-8-1-1.9-1.4-.7 2.4 2 2 2.7-.4 4.3-1 6-1Z"/>
	<path fill="#9FE8EC" stroke="None" d="M273 641c4-.9 13-1.8 16-4-7 0-10.5 2.2-16 4Z"/>
	<path fill="#CFF4F5" stroke="None"
	      d="M276 669c-2 .2-4 .7-6 1-10.2-1.4-23.7 9-32.3 5.3-8.7-3.7-16.2-11.8-22.7-17.3 4.7-.3 9-3.7 13-5-5-.8-9.4 1.4-13 4-1.9-1.1-2.6-3.9-5-4-1.5 4.5 5.9 4.4 2 9 4.5.7 9 5.8 13 7 4 1.3 7.5 5 5 8 2.8-.4 10.3-1.3 6 3 4.8-3.2 8.4 3.8 13 0-2.7.3-5-.1-7-2 10.5-2.5 22.6-5.3 34-9Z"/>
	<path fill="#25949F" stroke="None"
	      d="M270 670c2-.3 4-.8 6-1h4c11.5-1.6 27.6-2.5 39 0h3c2.8.1 5.2.7 8 1 1.3-2.6 5.7.5 7-2-23.1-1.9-46-4.6-67 2Z"/>
	<path fill="#3EA7A5" stroke="None"
	      d="M530 668c-.3.3 0 1 0 1h6c3 .2 5.8 1.6 9 1-.6-1.3-2.9-1.3-3-3-1.3-.3-1.9-.4-3-1-1 0-8 1-9 2Z"/>
	<path fill="#BEF8F6" stroke="None"
	      d="M536 669c1.7 3.7 6.8 1.3 10 2 1-4.1-1.3-3.4-4-4 .1 1.8 2.4 1.7 3 3-3.2.6-6-.8-9-1Z"/>
	<path fill="#94F2F3" stroke="None" d="M280 669h39a125.6 125.6 0 0 0-39 0Z"/>
	<path fill="#AEF6FA" stroke="None" d="M494 669h36s-.3-.7 0-1c-11.9 1.1-24.7-.5-36 1Z"/>
	<path fill="#B2F4F6" stroke="None" d="M334 671c-.8-.1-2.6-.8-4-1-2.8-.3-5.2-.9-8-1a25 25 0 0 0 12 2Z"/>
	<path fill="#BBF0F4" stroke="None" d="M469 673c5.6.1 10.5-2.5 16-2s4-1.6 5-2c-7.2.5-14.4 2.8-21 4Z"/>
	<path fill="#B8EFF5" stroke="None" d="M354 675v-1c-5.4-.6-10.6-2.5-16-3 5 1.5 8.7 4 16 4Z"/>
	<path fill="#19A5A3" stroke="None" d="M354 674v1c1.6 0 3.4-.2 5 0-1.3-.4-2.2-3.8-5-1Z"/>
	<path fill="#B9EBF4" stroke="None" d="M445 677c8.3 0 15.1-1 21-4-6.8.2-14.7 2.6-21 4Z"/>
	<path fill="#9CF1F7" stroke="None" d="M378 679c-2.2-.7-5.4-1.5-8-2 2 .7 4 2 8 2Z"/>
	<path fill="#A2F1F3" stroke="None" d="M434 679c4.1 0 5.6-.8 8-2-2.6.4-5.9 1.8-8 2Z"/>
	<path fill="#AEEEF5" stroke="None" d="M402 681h16c4.4 0 8.6-1.5 11-2-15.7.3-33.5-1-49 0 3.3 4 16 2 22 2Z"/>
	<path fill="#E7FFF6" stroke="None" d="M418 681h-16c1.5.3 4.5 2 8 2s6.5-1.7 8-2Z"/>
	<path fill="#BDF1F3" stroke="None"
	      d="M258 689c7.2-3.8 16.9-2.5 25-4 8.1-1.5 19.4-1.7 28-1l11 1a65 65 0 0 0-22-2c-6.5.8-17.9-1.1-23 1-5 2.2-18.3.2-19 5Z"/>
	<path fill="#BCFAFB" stroke="None" d="M498 684c1.3-.2 2.7 0 4 0 9.5 0 18.9.4 28 1-8.4-1.8-22-3.1-32-1Z"/>
	<path fill="#23848D" stroke="None"
	      d="M258 689v1c1 .6 3 .5 4 1 6.7-.4 16-4 24-4s16.7-2.9 25-3c-8.6-.7-19.9-.5-28 1-8.1 1.5-17.8.2-25 4Z"/>
	<path fill="#0A8BAA" stroke="None"
	      d="M262 691c3 1.4 6.2 4.8 9 6 1.4.2 2 .6 3 1 4.7 1.9 11.3 3.8 15 7h1c22.8 5.3 44.6 17 68 20h4c2.5.3 6 1.8 8 2 2.6 0 5.4-.2 8 0a364 364 0 0 0 56 1l12-1c5.4-.5 12.2-2 18-3a90.6 90.6 0 0 1 26-7c-4.3-3.6 3.6-.8 6-2s6.3-3 10-2c17.3-5.8 32.9-13.8 49-22-2.2 0-5.6-3.3-8-4-2.8-.5-6.6-1.7-9-2-2.6 0-5.4.2-8 0-9.1-.6-18.5-1-28-1-6 1.3-13.3 2.4-19.9 4.1-6.6 1.8-14.5 1.8-21.1 1.9-2 .5-3.6 1.3-6 1h-1c-5.1 2.8-13.9 3.5-20 4-2.6.2-5.4 0-8 0-2.1.2-5.2 1-8 1-6.4.6-14 1-21 1-3 0-9 1-11-1-.3-.3 0-1 0-1-6.8 0-12.6-1-19-2-3.2-.5-6.3-1.4-9-2-12.2-.5-24-5-36-6l-11-1c-8.3.1-17 3-25 3s-17.3 3.6-24 4Z"/>
	<path fill="#269096" stroke="None"
	      d="M488 685c-5.9.7-12.7 3.5-19 4h-5c-.5.1-2 .8-3 1 6.6-.1 14.5-.1 21.1-1.9 6.6-1.8 13.8-2.8 19.9-4.1-1.3 0-2.7-.2-4 0-3 .6-6.4 1-10 1Z"/>
	<path fill="#C1EFF2" stroke="None" d="M469 689c6.3-.5 13.1-3.3 19-4h-12c-3.2.2-5.5 3.6-7 4Z"/>
	<path fill="#C5F7F6" stroke="None" d="M547 687c3.7.6 7.1 2 11 2-3.5-4.6-14.3-4-20-4 2.4.3 6.2 1.5 9 2Z"/>
	<path fill="#2F9089" stroke="None" d="M555 691c1-.5 4.1.3 4-2h-1c-3.9 0-7.3-1.4-11-2 2.4.7 5.8 4 8 4Z"/>
	<path fill="#C3F6F7" stroke="None" d="M455 691c2.4.3 4-.5 6-1 1-.2 2.5-.9 3-1-3 0-8.1-1.2-9 2Z"/>
	<path fill="#C4F3F6" stroke="None"
	      d="M555 691c-16.1 8.2-31.7 16.2-49 22a278.8 278.8 0 0 1-42 11c-5.8 1-12.6 2.5-18 3 11.8 3.7 21.6-2.1 33-4 11.4-2 22.2-7.7 35-8 1.5-5.9 10.8-7 15.4-9.2 4.7-2.1 12-4.6 16.7-7.7 4.7-3 10.6-3.7 15.9-7.1-.2-1.6-1.8-1.8-3-2 .1 2.3-3 1.5-4 2Z"/>
	<path fill="#BAEFF1" stroke="None" d="M271 697c-2.8-1.2-6-4.6-9-6-1-.5-3-.4-4-1-.4 3.6 10 6.5 13 7Z"/>
	<path fill="none" stroke="None" d="M659 836h161V690a540.3 540.3 0 0 1-161 146Z"/>
	<path fill="#BDEFF0" stroke="None" d="M367 693c-2.3-.8-4.9-1.8-9-2 2.7.6 5.8 1.5 9 2Z"/>
	<path fill="#BCECF2" stroke="None" d="M434 695c6.1-.5 14.9-1.2 20-4-8 0-13.5 2.7-20 4Z"/>
	<path fill="#BEFAFA" stroke="None" d="M386 696c3.6.3 7.4 0 11 0h21c2.8 0 5.9-.8 8-1h-40s-.3.7 0 1Z"/>
	<path fill="#34827D" stroke="None" d="M397 697v-1c-3.6 0-7.4.3-11 0 2 2 8 1 11 1Z"/>
	<path fill="#6FA4A8" stroke="None" d="M397 697c7 0 14.6-.4 21-1h-21v1Z"/>
	<path fill="#BFEFF3" stroke="None" d="M289 705c-3.7-3.2-10.3-5.1-15-7 4.4 3 8.5 8.2 15 7Z"/>
	<path fill="#C0F1F4" stroke="None"
	      d="M358 725c-23.4-3-45.2-14.7-68-20 1 5 10.8 2.2 10 8 20 2.4 36.6 12 58 12Z"/>
	<path fill="none" stroke="None" d="M0 836h144A538 538 0 0 1 0 712v124Z"/>
	<path fill="#279098" stroke="None"
	      d="M464 724c14.3-2.4 28.7-6.5 42-11-3.7-1-7.6.8-10 2-2.4 1.2-10.3-1.6-6 2-9.7.9-18.3 3.9-26 7Z"/>
	<path fill="#BCF3F6" stroke="None" d="M370 727c-2-.3-5.5-1.8-8-2 2 .6 4.2 2 8 2Z"/>
	<path fill="#84E1E9" stroke="None"
	      d="M434 728a364 364 0 0 1-56-1c7.2 1.5 18.6 2.6 28 2 9.4-.6 19.3.7 28-1Z"/>
	<path fill="#FDFFFE" fill-opacity=".5" stroke="None" d="M382 836h20c-5.7-1.8-13.5-1-20-1v1Z"/>
	<path fill="#FDFFFD" fill-opacity=".7" stroke="None" d="M420 836h12c-2.9-1.7-9-1.6-12 0Z"/>
</svg>